<?xml version="1.0" encoding="UTF-8" standalone="no"?>
<!-- Created with Inkscape (http://www.inkscape.org/) -->

<svg
   xmlns:dc="http://purl.org/dc/elements/1.1/"
   xmlns:cc="http://creativecommons.org/ns#"
   xmlns:rdf="http://www.w3.org/1999/02/22-rdf-syntax-ns#"
   xmlns:svg="http://www.w3.org/2000/svg"
   xmlns="http://www.w3.org/2000/svg"
   xmlns:xlink="http://www.w3.org/1999/xlink"
   xmlns:sodipodi="http://sodipodi.sourceforge.net/DTD/sodipodi-0.dtd"
   xmlns:inkscape="http://www.inkscape.org/namespaces/inkscape"
   width="21cm"
   height="29.700001cm"
   viewBox="0 0 744.09449 1052.3622"
   id="svg2"
   version="1.1"
   inkscape:version="0.91 r13725"
   sodipodi:docname="drawing.svg">
  <defs
     id="defs4">
    <linearGradient
       inkscape:collect="always"
       id="linearGradient4302">
      <stop
         style="stop-color:#000080;stop-opacity:1;"
         offset="0"
         id="stop4304" />
      <stop
         id="stop4310"
         offset="0.44448522"
         style="stop-color:#6969ff;stop-opacity:1" />
      <stop
         style="stop-color:#00001f;stop-opacity:1"
         offset="1"
         id="stop4306" />
    </linearGradient>
    <filter
       inkscape:collect="always"
       style="color-interpolation-filters:sRGB"
       id="filter4188"
       x="-0.014596887"
       width="1.0291938"
       y="-0.067450999"
       height="1.134902">
      <feGaussianBlur
         inkscape:collect="always"
         stdDeviation="1.1399219"
         id="feGaussianBlur4190" />
    </filter>
    <radialGradient
       inkscape:collect="always"
       xlink:href="#linearGradient4302"
       id="radialGradient4308"
       cx="455.57082"
       cy="308.50666"
       fx="455.57082"
       fy="308.50666"
       r="195.46452"
       gradientTransform="matrix(1,0,0,0.5090439,0,151.46323)"
       gradientUnits="userSpaceOnUse" />
  </defs>
  <sodipodi:namedview
     id="base"
     pagecolor="#ffffff"
     bordercolor="#666666"
     borderopacity="1.0"
     inkscape:pageopacity="0.0"
     inkscape:pageshadow="2"
     inkscape:zoom="0.98994949"
     inkscape:cx="487.50998"
     inkscape:cy="706.92873"
     inkscape:document-units="cm"
     inkscape:current-layer="layer1"
     showgrid="false"
     units="cm"
     inkscape:window-width="1440"
     inkscape:window-height="818"
     inkscape:window-x="0"
     inkscape:window-y="1"
     inkscape:window-maximized="1" />
  <metadata
     id="metadata7">
    <rdf:RDF>
      <cc:Work
         rdf:about="">
        <dc:format>image/svg+xml</dc:format>
        <dc:type
           rdf:resource="http://purl.org/dc/dcmitype/StillImage" />
        <dc:title></dc:title>
      </cc:Work>
    </rdf:RDF>
  </metadata>
  <g
     inkscape:label="Layer 1"
     inkscape:groupmode="layer"
     id="layer1">
    <g
       id="g4312">
      <rect
         y="209.00664"
         x="260.10629"
         height="199.00005"
         width="390.92905"
         id="rect4300"
         style="opacity:1;fill:url(#radialGradient4308);fill-opacity:1;stroke:none;stroke-width:16;stroke-linecap:round;stroke-linejoin:round;stroke-miterlimit:4;stroke-dasharray:none;stroke-opacity:1" />
      <g
         id="g4256">
        <path
           inkscape:connector-curvature="0"
           id="path4234"
           style="font-style:normal;font-variant:normal;font-weight:bold;font-stretch:normal;font-size:medium;line-height:125%;font-family:'Bradley Hand ITC TT';-inkscape-font-specification:'Bradley Hand ITC TT, Bold';text-align:start;letter-spacing:20px;word-spacing:0px;writing-mode:lr-tb;text-anchor:start;fill:#280b0b;fill-opacity:0;stroke:#000000;stroke-width:5.33867931;stroke-linecap:round;stroke-linejoin:round;stroke-miterlimit:4;stroke-dasharray:none;stroke-opacity:1;filter:url(#filter4188)"
           d="m 251.33922,311.21824 -0.16,0.48 -0.16,0.8 -0.72,0.6 -0.16,0.52 -0.48,0.12 -0.52,0.76 -0.92,0.2 -0.8,0.56 -1.16,0.12 -0.6,0.64 -1.04,-0.08 -0.44,0.36 -0.56,-0.08 q -0.8,0.56 -1.88,0.76 l -0.28,-0.16 -1.16,0.84 -0.44,-0.24 -0.28,0.2 -0.72,-0.16 -0.28,0.16 -0.72,0.08 -0.56,-0.12 -0.72,0.6 -0.84,-0.36 0,0.04 q -0.08,0.08 -0.44,0.2 l -0.24,-0.28 q -0.56,0.44 -1.32,0.44 -0.08,0 -0.2,0 -0.16,-0.04 -0.24,-0.04 l -0.64,0.68 -0.76,0.24 -0.64,-0.36 -0.16,-0.72 -0.88,0.28 q 0.08,-0.08 0.08,-0.12 0,-0.04 0,-0.12 -0.04,-0.08 -0.04,-0.16 0,-0.12 0.16,-0.16 l -0.64,-1.28 0.04,-0.72 -0.08,-0.88 0.2,-0.64 -0.12,-0.88 0.28,-0.64 -0.16,-0.52 0.12,-0.88 q -0.12,-0.44 -0.28,-0.96 l -0.04,-0.56 q -1.32,-0.68 -1.48,-1.28 0.2,-0.96 1.16,-1.52 0.04,-0.04 0.44,-0.28 l -0.28,-0.88 0.32,-0.12 -0.16,-0.6 0.12,-0.16 -0.24,-0.6 0.12,-0.32 -0.04,-0.92 -0.48,-0.96 0.08,-0.4 -0.24,-0.16 0.08,-0.92 -0.2,-0.32 -0.28,-0.96 -0.04,-0.04 -0.44,0.36 -0.4,-0.28 -0.44,0.28 -0.16,-0.2 -0.68,0.44 -0.4,-0.6 -0.8,0.48 q -2,-1.16 -2,-2.04 0,-0.8 0.84,-0.96 0.4,-0.64 1.16,-0.64 l 0.16,0 0.44,0.2 0.08,-0.04 q 1.76,0 2.56,0.16 0.68,-0.16 1.2,-0.16 l 0.2,0.16 0.28,-0.08 1.12,0.4 2.32,0.28 q 0.2,-0.04 0.6,-0.04 0.52,0 0.76,0.08 l 0.44,-0.08 q 0.68,0.08 1.08,0.36 l 0.32,0.16 q 0.8,0.16 1.08,0.16 l 0.96,-0.16 0.2,0.24 q 0.52,0 0.92,0.4 l 1.16,0.04 0.48,0.44 q 0.52,0.2 0.88,0.2 l 0.8,0.24 0.32,0.32 0.92,0 0.24,0.56 0.84,0.52 0.28,1.24 -0.64,1.16 q -0.88,1 -1.76,1.16 l -0.64,0.36 -0.32,-0.08 -0.84,0.56 q -0.28,-0.04 -0.48,-0.04 l -0.84,0.28 -0.08,-0.04 -0.52,0.68 -0.76,0.12 q -1.04,0.52 -2.08,0.52 l -0.8,0.44 -0.84,0 -0.68,0.4 -0.52,0.08 1.4,0.44 0.8,-0.12 1.32,0.16 1.52,-0.24 0.08,0.16 q 0.28,-0.04 0.8,-0.04 0.96,0 1.24,0.4 0.28,-0.2 0.64,-0.2 0.68,0.24 0.92,0.24 0.28,0 0.76,-0.2 0.52,0.28 1.96,0.28 l 0.36,0.2 q 1.08,0.16 1.76,0.48 l 0.64,0 q 0.48,0.48 1.08,0.48 0.24,0.24 1.32,0.92 0.6,0.4 0.6,0.88 z m -9.24,-9.12 0,-0.32 -0.12,-0.04 -0.28,-0.32 -0.44,0 -0.4,-0.2 q -0.32,-0.08 -0.56,-0.16 l -0.44,0.32 -0.8,-0.6 -0.68,-0.2 -0.28,0.16 -0.76,-0.4 -0.2,0 q -0.4,0 -1.32,-0.12 l -0.92,0.12 -0.48,-0.44 -0.44,0.08 -0.16,-0.04 -0.24,0.2 -0.76,-0.28 -0.16,0.08 0,0.96 0.28,0.76 -0.24,0.6 0.24,0.92 -0.08,0.84 0.24,0.64 -0.2,0.68 0,0.08 0.64,-0.04 q 0.2,-0.08 0.6,-0.16 l -0.04,0.12 0.48,-0.36 0.08,-0.32 1,-0.04 q 1.24,-0.32 1.6,-0.76 l 0.48,0.04 0.2,-0.16 q 0.64,-0.64 1.36,-0.64 l 0.16,0 q 0.2,0 0.36,-0.2 l 1.08,-0.32 0.12,0 q 0.44,-0.36 1.08,-0.48 z m 5.72,9.6 -0.12,-0.08 -0.64,-0.08 -0.16,-0.2 -0.2,0 -0.92,-0.4 -0.76,0.08 -0.36,-0.32 -0.8,0.08 q -0.24,-0.2 -0.52,-0.28 -0.36,0.2 -0.68,0.2 -0.28,-0.04 -0.64,-0.24 -0.68,0 -1.48,-0.12 l -1.36,-0.04 q -0.68,-0.2 -1.24,-0.2 -0.24,0 -0.6,0.08 l -0.88,0.2 -0.6,-0.4 -0.04,0.24 -1.76,-0.16 q -0.36,-0.24 -0.44,-0.32 -0.68,0 -0.68,0.68 l 0,0.24 -0.04,0.36 0.24,0.56 -0.2,0.6 0.08,0.28 -0.08,0.56 0.28,0.48 0.08,0.76 -0.28,0.64 0.04,0.2 0.12,0.08 0.08,0.6 1.12,-0.04 0.68,-0.24 1.16,0.04 0.28,0.12 q 0.12,-0.12 0.4,-0.2 l 0.68,-0.32 1.12,0.04 1.12,-0.36 0.96,-0.4 0.56,0.04 0.96,-0.44 1.36,-0.08 q 1,-0.04 1.48,-0.68 l 0.56,0.04 0.44,-0.2 0.32,-0.44 0.88,-0.24 0.28,-0.48 0.2,-0.24 z"
           transform="matrix(2.9969959,0,0,2.9969959,-139.22575,-620.78999)" />
        <path
           inkscape:connector-curvature="0"
           id="path4223"
           style="font-style:normal;font-variant:normal;font-weight:bold;font-stretch:normal;font-size:medium;line-height:125%;font-family:'Bradley Hand ITC TT';-inkscape-font-specification:'Bradley Hand ITC TT, Bold';text-align:start;letter-spacing:20px;word-spacing:0px;writing-mode:lr-tb;text-anchor:start;fill:#ffffff;fill-opacity:0;stroke:#ffffff;stroke-width:16;stroke-linecap:round;stroke-linejoin:round;stroke-miterlimit:4;stroke-dasharray:none;stroke-opacity:1"
           d="m 610.48207,311.93725 -0.47952,1.43856 -0.47952,2.39759 -2.15783,1.7982 -0.47952,1.55844 -1.43856,0.35964 -1.55844,2.27772 -2.75724,0.5994 -2.39759,1.67831 -3.47652,0.35964 -1.79819,1.91808 -3.11688,-0.23976 -1.31868,1.07892 -1.67832,-0.23976 q -2.39759,1.67832 -5.63435,2.27772 l -0.83916,-0.47952 -3.47651,2.51747 -1.31868,-0.71928 -0.83916,0.5994 -2.15784,-0.47952 -0.83916,0.47952 -2.15783,0.23976 -1.67832,-0.35964 -2.15784,1.7982 -2.51747,-1.07892 0,0.11988 q -0.23976,0.23976 -1.31868,0.5994 l -0.71928,-0.83916 q -1.67832,1.31868 -3.95604,1.31868 -0.23976,0 -0.5994,0 -0.47951,-0.11988 -0.71927,-0.11988 l -1.91808,2.03796 -2.27772,0.71928 -1.91808,-1.07892 -0.47952,-2.15784 -2.63735,0.83916 q 0.23976,-0.23976 0.23976,-0.35964 0,-0.11988 0,-0.35964 -0.11988,-0.23976 -0.11988,-0.47952 0,-0.35964 0.47952,-0.47952 l -1.91808,-3.83615 0.11988,-2.15784 -0.23976,-2.63736 0.5994,-1.91807 -0.35964,-2.63736 0.83916,-1.91808 -0.47952,-1.55843 0.35964,-2.63736 q -0.35964,-1.31868 -0.83916,-2.87712 l -0.11988,-1.67831 q -3.95603,-2.03796 -4.43555,-3.83616 0.5994,-2.87712 3.47651,-4.55543 0.11988,-0.11988 1.31868,-0.83916 l -0.83916,-2.63736 0.95904,-0.35964 -0.47952,-1.7982 0.35964,-0.47951 -0.71928,-1.7982 0.35964,-0.95904 -0.11988,-2.75724 -1.43856,-2.87711 0.23976,-1.1988 -0.71928,-0.47952 0.23976,-2.75724 -0.5994,-0.95904 -0.83916,-2.87711 -0.11987,-0.11988 -1.31868,1.07892 -1.1988,-0.83916 -1.31868,0.83916 -0.47952,-0.5994 -2.03796,1.31868 -1.19879,-1.7982 -2.3976,1.43856 q -5.99399,-3.47652 -5.99399,-6.11388 0,-2.39759 2.51747,-2.87711 1.1988,-1.91808 3.47652,-1.91808 l 0.47952,0 1.31868,0.5994 0.23976,-0.11988 q 5.27471,0 7.67231,0.47952 2.03795,-0.47952 3.59639,-0.47952 l 0.5994,0.47952 0.83916,-0.23976 3.35663,1.1988 6.95303,0.83916 q 0.5994,-0.11988 1.7982,-0.11988 1.55844,0 2.27772,0.23976 l 1.31868,-0.23976 q 2.03795,0.23976 3.23675,1.07892 l 0.95904,0.47952 q 2.3976,0.47951 3.23676,0.47951 l 2.87711,-0.47951 0.5994,0.71927 q 1.55844,0 2.75724,1.1988 l 3.47651,0.11988 1.43856,1.31868 q 1.55844,0.5994 2.63736,0.5994 l 2.39759,0.71928 0.95904,0.95904 2.75724,0 0.71928,1.67832 2.51748,1.55843 0.83915,3.71628 -1.91807,3.47651 q -2.63736,2.997 -5.27472,3.47652 l -1.91807,1.07892 -0.95904,-0.23976 -2.51748,1.67832 q -0.83916,-0.11988 -1.43856,-0.11988 l -2.51747,0.83915 -0.23976,-0.11988 -1.55844,2.03796 -2.27772,0.35964 q -3.11687,1.55844 -6.23375,1.55844 l -2.3976,1.31868 -2.51747,0 -2.03796,1.1988 -1.55844,0.23976 4.1958,1.31867 2.39759,-0.35964 3.95604,0.47952 4.55543,-0.71928 0.23976,0.47952 q 0.83916,-0.11988 2.3976,-0.11988 2.87711,0 3.71627,1.1988 0.83916,-0.5994 1.91808,-0.5994 2.03796,0.71928 2.75724,0.71928 0.83916,0 2.27771,-0.5994 1.55844,0.83916 5.87412,0.83916 l 1.07891,0.5994 q 3.23676,0.47952 5.27472,1.43856 l 1.91807,0 q 1.43856,1.43856 3.23676,1.43856 0.71928,0.71928 3.95603,2.75723 1.7982,1.1988 1.7982,2.63736 z m -27.69224,-27.3326 0,-0.95904 -0.35964,-0.11988 -0.83916,-0.95904 -1.31868,0 -1.1988,-0.5994 q -0.95903,-0.23976 -1.67831,-0.47952 l -1.31868,0.95904 -2.3976,-1.7982 -2.03796,-0.5994 -0.83915,0.47952 -2.27772,-1.1988 -0.5994,0 q -1.1988,0 -3.95603,-0.35964 l -2.75724,0.35964 -1.43856,-1.31867 -1.31868,0.23976 -0.47952,-0.11988 -0.71928,0.59939 -2.27771,-0.83915 -0.47952,0.23976 0,2.87711 0.83916,2.27772 -0.71928,1.7982 0.71928,2.75723 -0.23976,2.51748 0.71928,1.91808 -0.5994,2.03795 0,0.23976 1.91807,-0.11988 q 0.5994,-0.23976 1.7982,-0.47952 l -0.11988,0.35964 1.43856,-1.07892 0.23976,-0.95903 2.997,-0.11988 q 3.71627,-0.95904 4.79519,-2.27772 l 1.43856,0.11988 0.5994,-0.47952 q 1.91807,-1.91808 4.07591,-1.91808 l 0.47952,0 q 0.5994,0 1.07892,-0.5994 l 3.23675,-0.95904 0.35964,0 q 1.31868,-1.07891 3.23676,-1.43855 z m 17.14282,28.77116 -0.35964,-0.23976 -1.91808,-0.23976 -0.47952,-0.5994 -0.5994,0 -2.75724,-1.1988 -2.27771,0.23976 -1.07892,-0.95904 -2.3976,0.23976 q -0.71928,-0.5994 -1.55844,-0.83916 -1.07891,0.5994 -2.03795,0.5994 -0.83916,-0.11988 -1.91808,-0.71928 -2.03796,0 -4.43555,-0.35964 l -4.07592,-0.11988 q -2.03796,-0.5994 -3.71627,-0.5994 -0.71928,0 -1.7982,0.23976 l -2.63736,0.5994 -1.79819,-1.1988 -0.11988,0.71928 -5.27472,-0.47952 q -1.07892,-0.71927 -1.31868,-0.95903 -2.03795,0 -2.03795,2.03795 l 0,0.71928 -0.11988,1.07892 0.71928,1.67832 -0.5994,1.7982 0.23976,0.83915 -0.23976,1.67832 0.83916,1.43856 0.23976,2.27772 -0.83916,1.91807 0.11988,0.5994 0.35964,0.23976 0.23976,1.7982 3.35663,-0.11988 2.03796,-0.71928 3.47651,0.11988 0.83916,0.35964 q 0.35964,-0.35964 1.1988,-0.5994 l 2.03796,-0.95904 3.35663,0.11988 3.35664,-1.07892 2.87712,-1.19879 1.67831,0.11988 2.87712,-1.31868 4.07591,-0.23976 q 2.997,-0.11988 4.43556,-2.03796 l 1.67831,0.11988 1.31868,-0.5994 0.95904,-1.31868 2.63736,-0.71928 0.83916,-1.43855 0.5994,-0.71928 z" />
        <path
           inkscape:connector-curvature="0"
           id="path4212"
           style="font-style:normal;font-variant:normal;font-weight:bold;font-stretch:normal;font-size:medium;line-height:125%;font-family:'Bradley Hand ITC TT';-inkscape-font-specification:'Bradley Hand ITC TT, Bold';text-align:start;letter-spacing:20px;word-spacing:0px;writing-mode:lr-tb;text-anchor:start;fill:#000000;fill-opacity:0;stroke:#000080;stroke-width:8;stroke-linecap:round;stroke-linejoin:round;stroke-miterlimit:4;stroke-dasharray:none;stroke-opacity:1"
           d="m 610.48207,311.93725 -0.47952,1.43856 -0.47952,2.39759 -2.15783,1.7982 -0.47952,1.55844 -1.43856,0.35964 -1.55844,2.27772 -2.75724,0.5994 -2.39759,1.67831 -3.47652,0.35964 -1.79819,1.91808 -3.11688,-0.23976 -1.31868,1.07892 -1.67832,-0.23976 q -2.39759,1.67832 -5.63435,2.27772 l -0.83916,-0.47952 -3.47651,2.51747 -1.31868,-0.71928 -0.83916,0.5994 -2.15784,-0.47952 -0.83916,0.47952 -2.15783,0.23976 -1.67832,-0.35964 -2.15784,1.7982 -2.51747,-1.07892 0,0.11988 q -0.23976,0.23976 -1.31868,0.5994 l -0.71928,-0.83916 q -1.67832,1.31868 -3.95604,1.31868 -0.23976,0 -0.5994,0 -0.47951,-0.11988 -0.71927,-0.11988 l -1.91808,2.03796 -2.27772,0.71928 -1.91808,-1.07892 -0.47952,-2.15784 -2.63735,0.83916 q 0.23976,-0.23976 0.23976,-0.35964 0,-0.11988 0,-0.35964 -0.11988,-0.23976 -0.11988,-0.47952 0,-0.35964 0.47952,-0.47952 l -1.91808,-3.83615 0.11988,-2.15784 -0.23976,-2.63736 0.5994,-1.91807 -0.35964,-2.63736 0.83916,-1.91808 -0.47952,-1.55843 0.35964,-2.63736 q -0.35964,-1.31868 -0.83916,-2.87712 l -0.11988,-1.67831 q -3.95603,-2.03796 -4.43555,-3.83616 0.5994,-2.87712 3.47651,-4.55543 0.11988,-0.11988 1.31868,-0.83916 l -0.83916,-2.63736 0.95904,-0.35964 -0.47952,-1.7982 0.35964,-0.47951 -0.71928,-1.7982 0.35964,-0.95904 -0.11988,-2.75724 -1.43856,-2.87711 0.23976,-1.1988 -0.71928,-0.47952 0.23976,-2.75724 -0.5994,-0.95904 -0.83916,-2.87711 -0.11987,-0.11988 -1.31868,1.07892 -1.1988,-0.83916 -1.31868,0.83916 -0.47952,-0.5994 -2.03796,1.31868 -1.19879,-1.7982 -2.3976,1.43856 q -5.99399,-3.47652 -5.99399,-6.11388 0,-2.39759 2.51747,-2.87711 1.1988,-1.91808 3.47652,-1.91808 l 0.47952,0 1.31868,0.5994 0.23976,-0.11988 q 5.27471,0 7.67231,0.47952 2.03795,-0.47952 3.59639,-0.47952 l 0.5994,0.47952 0.83916,-0.23976 3.35663,1.1988 6.95303,0.83916 q 0.5994,-0.11988 1.7982,-0.11988 1.55844,0 2.27772,0.23976 l 1.31868,-0.23976 q 2.03795,0.23976 3.23675,1.07892 l 0.95904,0.47952 q 2.3976,0.47951 3.23676,0.47951 l 2.87711,-0.47951 0.5994,0.71927 q 1.55844,0 2.75724,1.1988 l 3.47651,0.11988 1.43856,1.31868 q 1.55844,0.5994 2.63736,0.5994 l 2.39759,0.71928 0.95904,0.95904 2.75724,0 0.71928,1.67832 2.51748,1.55843 0.83915,3.71628 -1.91807,3.47651 q -2.63736,2.997 -5.27472,3.47652 l -1.91807,1.07892 -0.95904,-0.23976 -2.51748,1.67832 q -0.83916,-0.11988 -1.43856,-0.11988 l -2.51747,0.83915 -0.23976,-0.11988 -1.55844,2.03796 -2.27772,0.35964 q -3.11687,1.55844 -6.23375,1.55844 l -2.3976,1.31868 -2.51747,0 -2.03796,1.1988 -1.55844,0.23976 4.1958,1.31867 2.39759,-0.35964 3.95604,0.47952 4.55543,-0.71928 0.23976,0.47952 q 0.83916,-0.11988 2.3976,-0.11988 2.87711,0 3.71627,1.1988 0.83916,-0.5994 1.91808,-0.5994 2.03796,0.71928 2.75724,0.71928 0.83916,0 2.27771,-0.5994 1.55844,0.83916 5.87412,0.83916 l 1.07891,0.5994 q 3.23676,0.47952 5.27472,1.43856 l 1.91807,0 q 1.43856,1.43856 3.23676,1.43856 0.71928,0.71928 3.95603,2.75723 1.7982,1.1988 1.7982,2.63736 z m -27.69224,-27.3326 0,-0.95904 -0.35964,-0.11988 -0.83916,-0.95904 -1.31868,0 -1.1988,-0.5994 q -0.95903,-0.23976 -1.67831,-0.47952 l -1.31868,0.95904 -2.3976,-1.7982 -2.03796,-0.5994 -0.83915,0.47952 -2.27772,-1.1988 -0.5994,0 q -1.1988,0 -3.95603,-0.35964 l -2.75724,0.35964 -1.43856,-1.31867 -1.31868,0.23976 -0.47952,-0.11988 -0.71928,0.59939 -2.27771,-0.83915 -0.47952,0.23976 0,2.87711 0.83916,2.27772 -0.71928,1.7982 0.71928,2.75723 -0.23976,2.51748 0.71928,1.91808 -0.5994,2.03795 0,0.23976 1.91807,-0.11988 q 0.5994,-0.23976 1.7982,-0.47952 l -0.11988,0.35964 1.43856,-1.07892 0.23976,-0.95903 2.997,-0.11988 q 3.71627,-0.95904 4.79519,-2.27772 l 1.43856,0.11988 0.5994,-0.47952 q 1.91807,-1.91808 4.07591,-1.91808 l 0.47952,0 q 0.5994,0 1.07892,-0.5994 l 3.23675,-0.95904 0.35964,0 q 1.31868,-1.07891 3.23676,-1.43855 z m 17.14282,28.77116 -0.35964,-0.23976 -1.91808,-0.23976 -0.47952,-0.5994 -0.5994,0 -2.75724,-1.1988 -2.27771,0.23976 -1.07892,-0.95904 -2.3976,0.23976 q -0.71928,-0.5994 -1.55844,-0.83916 -1.07891,0.5994 -2.03795,0.5994 -0.83916,-0.11988 -1.91808,-0.71928 -2.03796,0 -4.43555,-0.35964 l -4.07592,-0.11988 q -2.03796,-0.5994 -3.71627,-0.5994 -0.71928,0 -1.7982,0.23976 l -2.63736,0.5994 -1.79819,-1.1988 -0.11988,0.71928 -5.27472,-0.47952 q -1.07892,-0.71927 -1.31868,-0.95903 -2.03795,0 -2.03795,2.03795 l 0,0.71928 -0.11988,1.07892 0.71928,1.67832 -0.5994,1.7982 0.23976,0.83915 -0.23976,1.67832 0.83916,1.43856 0.23976,2.27772 -0.83916,1.91807 0.11988,0.5994 0.35964,0.23976 0.23976,1.7982 3.35663,-0.11988 2.03796,-0.71928 3.47651,0.11988 0.83916,0.35964 q 0.35964,-0.35964 1.1988,-0.5994 l 2.03796,-0.95904 3.35663,0.11988 3.35664,-1.07892 2.87712,-1.19879 1.67831,0.11988 2.87712,-1.31868 4.07591,-0.23976 q 2.997,-0.11988 4.43556,-2.03796 l 1.67831,0.11988 1.31868,-0.5994 0.95904,-1.31868 2.63736,-0.71928 0.83916,-1.43855 0.5994,-0.71928 z" />
        <path
           inkscape:connector-curvature="0"
           id="path4201"
           style="font-style:normal;font-variant:normal;font-weight:bold;font-stretch:normal;font-size:medium;line-height:125%;font-family:'Bradley Hand ITC TT';-inkscape-font-specification:'Bradley Hand ITC TT, Bold';text-align:start;letter-spacing:20px;word-spacing:0px;writing-mode:lr-tb;text-anchor:start;fill:#ffffff;fill-opacity:1;stroke:none;stroke-width:1px;stroke-linecap:butt;stroke-linejoin:miter;stroke-opacity:1"
           d="m 610.48207,311.93725 -0.47952,1.43856 -0.47952,2.39759 -2.15783,1.7982 -0.47952,1.55844 -1.43856,0.35964 -1.55844,2.27772 -2.75724,0.5994 -2.39759,1.67831 -3.47652,0.35964 -1.79819,1.91808 -3.11688,-0.23976 -1.31868,1.07892 -1.67832,-0.23976 q -2.39759,1.67832 -5.63435,2.27772 l -0.83916,-0.47952 -3.47651,2.51747 -1.31868,-0.71928 -0.83916,0.5994 -2.15784,-0.47952 -0.83916,0.47952 -2.15783,0.23976 -1.67832,-0.35964 -2.15784,1.7982 -2.51747,-1.07892 0,0.11988 q -0.23976,0.23976 -1.31868,0.5994 l -0.71928,-0.83916 q -1.67832,1.31868 -3.95604,1.31868 -0.23976,0 -0.5994,0 -0.47951,-0.11988 -0.71927,-0.11988 l -1.91808,2.03796 -2.27772,0.71928 -1.91808,-1.07892 -0.47952,-2.15784 -2.63735,0.83916 q 0.23976,-0.23976 0.23976,-0.35964 0,-0.11988 0,-0.35964 -0.11988,-0.23976 -0.11988,-0.47952 0,-0.35964 0.47952,-0.47952 l -1.91808,-3.83615 0.11988,-2.15784 -0.23976,-2.63736 0.5994,-1.91807 -0.35964,-2.63736 0.83916,-1.91808 -0.47952,-1.55843 0.35964,-2.63736 q -0.35964,-1.31868 -0.83916,-2.87712 l -0.11988,-1.67831 q -3.95603,-2.03796 -4.43555,-3.83616 0.5994,-2.87712 3.47651,-4.55543 0.11988,-0.11988 1.31868,-0.83916 l -0.83916,-2.63736 0.95904,-0.35964 -0.47952,-1.7982 0.35964,-0.47951 -0.71928,-1.7982 0.35964,-0.95904 -0.11988,-2.75724 -1.43856,-2.87711 0.23976,-1.1988 -0.71928,-0.47952 0.23976,-2.75724 -0.5994,-0.95904 -0.83916,-2.87711 -0.11987,-0.11988 -1.31868,1.07892 -1.1988,-0.83916 -1.31868,0.83916 -0.47952,-0.5994 -2.03796,1.31868 -1.19879,-1.7982 -2.3976,1.43856 q -5.99399,-3.47652 -5.99399,-6.11388 0,-2.39759 2.51747,-2.87711 1.1988,-1.91808 3.47652,-1.91808 l 0.47952,0 1.31868,0.5994 0.23976,-0.11988 q 5.27471,0 7.67231,0.47952 2.03795,-0.47952 3.59639,-0.47952 l 0.5994,0.47952 0.83916,-0.23976 3.35663,1.1988 6.95303,0.83916 q 0.5994,-0.11988 1.7982,-0.11988 1.55844,0 2.27772,0.23976 l 1.31868,-0.23976 q 2.03795,0.23976 3.23675,1.07892 l 0.95904,0.47952 q 2.3976,0.47951 3.23676,0.47951 l 2.87711,-0.47951 0.5994,0.71927 q 1.55844,0 2.75724,1.1988 l 3.47651,0.11988 1.43856,1.31868 q 1.55844,0.5994 2.63736,0.5994 l 2.39759,0.71928 0.95904,0.95904 2.75724,0 0.71928,1.67832 2.51748,1.55843 0.83915,3.71628 -1.91807,3.47651 q -2.63736,2.997 -5.27472,3.47652 l -1.91807,1.07892 -0.95904,-0.23976 -2.51748,1.67832 q -0.83916,-0.11988 -1.43856,-0.11988 l -2.51747,0.83915 -0.23976,-0.11988 -1.55844,2.03796 -2.27772,0.35964 q -3.11687,1.55844 -6.23375,1.55844 l -2.3976,1.31868 -2.51747,0 -2.03796,1.1988 -1.55844,0.23976 4.1958,1.31867 2.39759,-0.35964 3.95604,0.47952 4.55543,-0.71928 0.23976,0.47952 q 0.83916,-0.11988 2.3976,-0.11988 2.87711,0 3.71627,1.1988 0.83916,-0.5994 1.91808,-0.5994 2.03796,0.71928 2.75724,0.71928 0.83916,0 2.27771,-0.5994 1.55844,0.83916 5.87412,0.83916 l 1.07891,0.5994 q 3.23676,0.47952 5.27472,1.43856 l 1.91807,0 q 1.43856,1.43856 3.23676,1.43856 0.71928,0.71928 3.95603,2.75723 1.7982,1.1988 1.7982,2.63736 z m -27.69224,-27.3326 0,-0.95904 -0.35964,-0.11988 -0.83916,-0.95904 -1.31868,0 -1.1988,-0.5994 q -0.95903,-0.23976 -1.67831,-0.47952 l -1.31868,0.95904 -2.3976,-1.7982 -2.03796,-0.5994 -0.83915,0.47952 -2.27772,-1.1988 -0.5994,0 q -1.1988,0 -3.95603,-0.35964 l -2.75724,0.35964 -1.43856,-1.31867 -1.31868,0.23976 -0.47952,-0.11988 -0.71928,0.59939 -2.27771,-0.83915 -0.47952,0.23976 0,2.87711 0.83916,2.27772 -0.71928,1.7982 0.71928,2.75723 -0.23976,2.51748 0.71928,1.91808 -0.5994,2.03795 0,0.23976 1.91807,-0.11988 q 0.5994,-0.23976 1.7982,-0.47952 l -0.11988,0.35964 1.43856,-1.07892 0.23976,-0.95903 2.997,-0.11988 q 3.71627,-0.95904 4.79519,-2.27772 l 1.43856,0.11988 0.5994,-0.47952 q 1.91807,-1.91808 4.07591,-1.91808 l 0.47952,0 q 0.5994,0 1.07892,-0.5994 l 3.23675,-0.95904 0.35964,0 q 1.31868,-1.07891 3.23676,-1.43855 z m 17.14282,28.77116 -0.35964,-0.23976 -1.91808,-0.23976 -0.47952,-0.5994 -0.5994,0 -2.75724,-1.1988 -2.27771,0.23976 -1.07892,-0.95904 -2.3976,0.23976 q -0.71928,-0.5994 -1.55844,-0.83916 -1.07891,0.5994 -2.03795,0.5994 -0.83916,-0.11988 -1.91808,-0.71928 -2.03796,0 -4.43555,-0.35964 l -4.07592,-0.11988 q -2.03796,-0.5994 -3.71627,-0.5994 -0.71928,0 -1.7982,0.23976 l -2.63736,0.5994 -1.79819,-1.1988 -0.11988,0.71928 -5.27472,-0.47952 q -1.07892,-0.71927 -1.31868,-0.95903 -2.03795,0 -2.03795,2.03795 l 0,0.71928 -0.11988,1.07892 0.71928,1.67832 -0.5994,1.7982 0.23976,0.83915 -0.23976,1.67832 0.83916,1.43856 0.23976,2.27772 -0.83916,1.91807 0.11988,0.5994 0.35964,0.23976 0.23976,1.7982 3.35663,-0.11988 2.03796,-0.71928 3.47651,0.11988 0.83916,0.35964 q 0.35964,-0.35964 1.1988,-0.5994 l 2.03796,-0.95904 3.35663,0.11988 3.35664,-1.07892 2.87712,-1.19879 1.67831,0.11988 2.87712,-1.31868 4.07591,-0.23976 q 2.997,-0.11988 4.43556,-2.03796 l 1.67831,0.11988 1.31868,-0.5994 0.95904,-1.31868 2.63736,-0.71928 0.83916,-1.43855 0.5994,-0.71928 z" />
      </g>
      <g
         transform="translate(68,-12)"
         id="g4262">
        <path
           inkscape:connector-curvature="0"
           id="path4232"
           style="font-style:normal;font-variant:normal;font-weight:bold;font-stretch:normal;font-size:medium;line-height:125%;font-family:'Bradley Hand ITC TT';-inkscape-font-specification:'Bradley Hand ITC TT, Bold';text-align:start;letter-spacing:20px;word-spacing:0px;writing-mode:lr-tb;text-anchor:start;fill:#280b0b;fill-opacity:0;stroke:#000000;stroke-width:5.33867931;stroke-linecap:round;stroke-linejoin:round;stroke-miterlimit:4;stroke-dasharray:none;stroke-opacity:1;filter:url(#filter4188)"
           d="m 203.71797,309.81824 q 0,0.04 0,0.12 -0.04,0.08 -0.04,0.12 l -0.16,0.4 -0.12,0.6 -0.8,1.08 -0.28,0.6 -0.84,0.36 -0.28,0.36 -1.12,0.32 -0.72,0.4 -0.36,0 -0.24,0.36 -1.04,0 q -0.48,0.6 -1.48,0.6 -0.16,-0.16 -0.2,-0.16 -0.08,0 -0.52,0.28 l -0.68,-0.08 -0.28,0.12 -0.76,-0.08 0.2,0.12 q -0.96,0.24 -1.4,0.24 -0.2,0 -0.28,-0.04 -1.16,0.36 -1.88,0.36 -0.04,0 -0.2,-0.04 -0.12,0 -0.2,0 l -0.6,0.16 -0.52,-0.2 -0.28,0.12 -0.52,0.52 -0.72,-0.16 q -0.12,-0.04 -0.44,-0.16 l -0.08,0.04 -0.48,0.12 -0.08,0.8 -0.24,0.64 -1.24,1.44 -0.52,-0.48 -0.84,0 0.2,-1.4 0,-0.48 -0.28,-0.2 q -0.16,0.08 -0.56,0.32 l -1.08,0 -0.76,-0.52 -0.32,-0.92 0.56,-0.52 q 0.68,-0.64 1.88,-0.92 l -0.04,-0.08 q -0.08,-0.24 -0.08,-0.4 0,-0.28 0.16,-0.56 l -0.12,-1.84 0.2,-0.48 0,-0.84 0.2,-0.44 -0.48,-0.8 0.56,-1.12 -0.2,-2.4 0.08,-0.92 0,-0.6 -0.36,-0.88 0,-1.24 -0.24,-0.56 -0.24,-0.12 -0.88,0.4 -1.52,0.12 q -0.72,0 -1.04,-1.36 l -0.28,-1.24 q 1,-0.84 1.84,-0.84 l 0.08,0 q 1.16,-0.32 2.08,-0.32 0.12,0 0.36,0.12 0.24,0.08 0.44,0.08 -0.04,0 1,-0.24 l 0.16,0.44 0.56,-0.12 0.36,0.12 0.52,-0.12 1.56,0.36 0.52,0.32 1.16,-0.2 0.44,0.68 0.24,0.04 0.68,0.44 0.4,0.04 0.48,0.2 0.16,0 q 0.64,0 1.12,0.36 1.16,0.32 1.8,1.04 0.32,0.08 0.56,0.2 0.52,0.4 1.08,0.44 l 1.12,0.8 1.08,0.92 -0.12,0.12 0.92,-0.08 0.4,0.28 0.12,0.6 q 1.08,0.88 2.12,2.16 0.04,0.12 0.08,0.28 l 0.64,0.36 0,1 q 0,0 0.36,0.36 0,0.32 0.04,0.4 l 0.12,0.08 q 0.4,0.48 0.4,0.8 z m -3.12,0.28 -0.12,-0.76 -1.24,-1.56 -0.4,0 -0.44,-1.08 q -0.88,-0.4 -1.2,-0.64 l -0.12,-0.48 -0.2,-0.16 -1.2,-0.36 -0.36,-0.64 -2.84,-1.56 q -0.04,0 -0.2,0 -0.12,0.04 -0.2,0.04 -0.6,0 -1.08,-0.36 l -0.12,-0.32 -0.76,0 -0.2,-0.16 -0.52,-0.12 q -0.12,0.04 -0.32,0.04 -0.36,0 -0.44,-0.16 l -0.04,-0.12 -0.48,-0.32 -0.72,-0.04 q -0.4,-0.4 -0.84,-0.4 l -0.28,0.64 -0.2,0 0.44,0.96 -0.24,0.32 q 0.32,0.76 0.32,0.96 l 0,0.2 q 0,0.28 -0.08,0.48 l 0.36,1.04 -0.36,0.12 0.04,0.24 0,1.32 q 0,0.08 -0.16,0.88 l 0.28,0.24 -0.44,1.2 0.12,0.88 -0.36,0.76 0.36,0.56 -0.08,0.8 0.2,0.48 -0.24,0.56 0.04,0.16 0.4,-0.04 1.36,-0.2 q 0.48,-0.16 1.04,-0.16 0.6,0 1.04,0.16 0.8,0 1.8,-0.56 1.92,-0.12 1.48,-0.12 0.16,0 0.36,0.04 0.2,0.04 0.28,0.04 0.44,0 0.6,-0.2 l 0.64,-0.16 q 0.6,-0.4 1.12,-0.4 0.2,0 0.48,0.12 0.32,-0.12 0.48,-0.12 l 0.44,-0.6 0.64,0.16 0.28,-0.12 0.56,-0.4 0.24,0 1.04,-0.76 0.04,-0.32 z"
           transform="matrix(2.9969959,0,0,2.9969959,-139.22575,-620.78999)" />
        <path
           inkscape:connector-curvature="0"
           id="path4221"
           style="font-style:normal;font-variant:normal;font-weight:bold;font-stretch:normal;font-size:medium;line-height:125%;font-family:'Bradley Hand ITC TT';-inkscape-font-specification:'Bradley Hand ITC TT, Bold';text-align:start;letter-spacing:20px;word-spacing:0px;writing-mode:lr-tb;text-anchor:start;fill:#ffffff;fill-opacity:0;stroke:#ffffff;stroke-width:16;stroke-linecap:round;stroke-linejoin:round;stroke-miterlimit:4;stroke-dasharray:none;stroke-opacity:1"
           d="m 467.76138,307.74146 q 0,0.11987 0,0.35963 -0.11988,0.23976 -0.11988,0.35964 l -0.47952,1.1988 -0.35964,1.7982 -2.39759,3.23676 -0.83916,1.79819 -2.51748,1.07892 -0.83916,1.07892 -3.35663,0.95904 -2.15784,1.1988 -1.07892,0 -0.71928,1.07892 -3.11687,0 q -1.43856,1.79819 -4.43556,1.79819 -0.47952,-0.47952 -0.5994,-0.47952 -0.23976,0 -1.55844,0.83916 l -2.03795,-0.23976 -0.83916,0.35964 -2.27772,-0.23976 0.5994,0.35964 q -2.87712,0.71928 -4.19579,0.71928 -0.5994,0 -0.83916,-0.11988 -3.47652,1.07892 -5.63435,1.07892 -0.11988,0 -0.5994,-0.11988 -0.35964,0 -0.5994,0 l -1.7982,0.47952 -1.55844,-0.5994 -0.83916,0.35964 -1.55844,1.55844 -2.15783,-0.47952 q -0.35964,-0.11988 -1.31868,-0.47952 l -0.23976,0.11988 -1.43856,0.35964 -0.23976,2.3976 -0.71928,1.91807 -3.71627,4.31568 -1.55844,-1.43856 -2.51748,0 0.5994,-4.1958 0,-1.43855 -0.83916,-0.5994 q -0.47952,0.23976 -1.67831,0.95904 l -3.23676,0 -2.27772,-1.55844 -0.95903,-2.75724 1.67831,-1.55844 q 2.03796,-1.91807 5.63436,-2.75723 l -0.11988,-0.23976 q -0.23976,-0.71928 -0.23976,-1.1988 0,-0.83916 0.47952,-1.67832 l -0.35964,-5.51447 0.59939,-1.43856 0,-2.51748 0.5994,-1.31867 -1.43855,-2.3976 1.67831,-3.35664 -0.5994,-7.19279 0.23976,-2.75723 0,-1.7982 -1.07891,-2.63736 0,-3.71627 -0.71928,-1.67832 -0.71928,-0.35964 -2.63736,1.1988 -4.55543,0.35964 q -2.15784,0 -3.11688,-4.07591 l -0.83916,-3.71628 q 2.997,-2.51748 5.51448,-2.51748 l 0.23975,0 q 3.47652,-0.95903 6.23376,-0.95903 0.35964,0 1.07891,0.35963 0.71928,0.23976 1.31868,0.23976 -0.11988,0 2.997,-0.71927 l 0.47952,1.31867 1.67832,-0.35964 1.07891,0.35964 1.55844,-0.35964 4.67532,1.07892 1.55843,0.95904 3.47652,-0.5994 1.31868,2.03796 0.71928,0.11988 2.03795,1.31868 1.1988,0.11988 1.43856,0.5994 0.47952,0 q 1.91808,0 3.35663,1.07892 3.47652,0.95903 5.3946,3.11687 0.95904,0.23976 1.67832,0.5994 1.55843,1.1988 3.23675,1.31868 l 3.35664,2.39759 3.23675,2.75724 -0.35964,0.35964 2.75724,-0.23976 1.1988,0.83916 0.35964,1.7982 q 3.23675,2.63735 6.35363,6.47351 0.11988,0.35964 0.23976,0.83916 l 1.91807,1.07892 0,2.99699 q 0,0 1.07892,1.07892 0,0.95904 0.11988,1.1988 l 0.35964,0.23976 q 1.1988,1.43856 1.1988,2.3976 z m -9.35063,0.83915 -0.35964,-2.27771 -3.71627,-4.67532 -1.1988,0 -1.31868,-3.23675 q -2.63735,-1.1988 -3.59639,-1.91808 l -0.35964,-1.43856 -0.5994,-0.47952 -3.5964,-1.07892 -1.07891,-1.91807 -8.51147,-4.67532 q -0.11988,0 -0.5994,0 -0.35964,0.11988 -0.5994,0.11988 -1.7982,0 -3.23676,-1.07892 l -0.35964,-0.95903 -2.27771,0 -0.5994,-0.47952 -1.55844,-0.35964 q -0.35964,0.11988 -0.95904,0.11988 -1.07892,0 -1.31868,-0.47952 l -0.11988,-0.35964 -1.43856,-0.95904 -2.15783,-0.11988 q -1.1988,-1.1988 -2.51748,-1.1988 l -0.83916,1.91808 -0.5994,0 1.31868,2.87711 -0.71928,0.95904 q 0.95904,2.27772 0.95904,2.87712 l 0,0.5994 q 0,0.83916 -0.23976,1.43856 l 1.07892,3.11687 -1.07892,0.35964 0.11988,0.71928 0,3.95604 q 0,0.23976 -0.47952,2.63735 l 0.83916,0.71928 -1.31868,3.5964 0.35964,2.63735 -1.07892,2.27772 1.07892,1.67832 -0.23976,2.39759 0.5994,1.43856 -0.71928,1.67832 0.11988,0.47952 1.1988,-0.11988 4.07592,-0.5994 q 1.43855,-0.47952 3.11687,-0.47952 1.7982,0 3.11688,0.47952 2.39759,0 5.39459,-1.67832 5.75423,-0.35964 4.43555,-0.35964 0.47952,0 1.07892,0.11988 0.5994,0.11988 0.83916,0.11988 1.31868,0 1.7982,-0.5994 l 1.91808,-0.47952 q 1.79819,-1.19879 3.35663,-1.19879 0.5994,0 1.43856,0.35964 0.95904,-0.35964 1.43856,-0.35964 l 1.31868,-1.7982 1.91807,0.47952 0.83916,-0.35964 1.67832,-1.1988 0.71928,0 3.11687,-2.27772 0.11988,-0.95904 z" />
        <path
           inkscape:connector-curvature="0"
           id="path4210"
           style="font-style:normal;font-variant:normal;font-weight:bold;font-stretch:normal;font-size:medium;line-height:125%;font-family:'Bradley Hand ITC TT';-inkscape-font-specification:'Bradley Hand ITC TT, Bold';text-align:start;letter-spacing:20px;word-spacing:0px;writing-mode:lr-tb;text-anchor:start;fill:#000000;fill-opacity:0;stroke:#000080;stroke-width:8;stroke-linecap:round;stroke-linejoin:round;stroke-miterlimit:4;stroke-dasharray:none;stroke-opacity:1"
           d="m 467.76138,307.74146 q 0,0.11987 0,0.35963 -0.11988,0.23976 -0.11988,0.35964 l -0.47952,1.1988 -0.35964,1.7982 -2.39759,3.23676 -0.83916,1.79819 -2.51748,1.07892 -0.83916,1.07892 -3.35663,0.95904 -2.15784,1.1988 -1.07892,0 -0.71928,1.07892 -3.11687,0 q -1.43856,1.79819 -4.43556,1.79819 -0.47952,-0.47952 -0.5994,-0.47952 -0.23976,0 -1.55844,0.83916 l -2.03795,-0.23976 -0.83916,0.35964 -2.27772,-0.23976 0.5994,0.35964 q -2.87712,0.71928 -4.19579,0.71928 -0.5994,0 -0.83916,-0.11988 -3.47652,1.07892 -5.63435,1.07892 -0.11988,0 -0.5994,-0.11988 -0.35964,0 -0.5994,0 l -1.7982,0.47952 -1.55844,-0.5994 -0.83916,0.35964 -1.55844,1.55844 -2.15783,-0.47952 q -0.35964,-0.11988 -1.31868,-0.47952 l -0.23976,0.11988 -1.43856,0.35964 -0.23976,2.3976 -0.71928,1.91807 -3.71627,4.31568 -1.55844,-1.43856 -2.51748,0 0.5994,-4.1958 0,-1.43855 -0.83916,-0.5994 q -0.47952,0.23976 -1.67831,0.95904 l -3.23676,0 -2.27772,-1.55844 -0.95903,-2.75724 1.67831,-1.55844 q 2.03796,-1.91807 5.63436,-2.75723 l -0.11988,-0.23976 q -0.23976,-0.71928 -0.23976,-1.1988 0,-0.83916 0.47952,-1.67832 l -0.35964,-5.51447 0.59939,-1.43856 0,-2.51748 0.5994,-1.31867 -1.43855,-2.3976 1.67831,-3.35664 -0.5994,-7.19279 0.23976,-2.75723 0,-1.7982 -1.07891,-2.63736 0,-3.71627 -0.71928,-1.67832 -0.71928,-0.35964 -2.63736,1.1988 -4.55543,0.35964 q -2.15784,0 -3.11688,-4.07591 l -0.83916,-3.71628 q 2.997,-2.51748 5.51448,-2.51748 l 0.23975,0 q 3.47652,-0.95903 6.23376,-0.95903 0.35964,0 1.07891,0.35963 0.71928,0.23976 1.31868,0.23976 -0.11988,0 2.997,-0.71927 l 0.47952,1.31867 1.67832,-0.35964 1.07891,0.35964 1.55844,-0.35964 4.67532,1.07892 1.55843,0.95904 3.47652,-0.5994 1.31868,2.03796 0.71928,0.11988 2.03795,1.31868 1.1988,0.11988 1.43856,0.5994 0.47952,0 q 1.91808,0 3.35663,1.07892 3.47652,0.95903 5.3946,3.11687 0.95904,0.23976 1.67832,0.5994 1.55843,1.1988 3.23675,1.31868 l 3.35664,2.39759 3.23675,2.75724 -0.35964,0.35964 2.75724,-0.23976 1.1988,0.83916 0.35964,1.7982 q 3.23675,2.63735 6.35363,6.47351 0.11988,0.35964 0.23976,0.83916 l 1.91807,1.07892 0,2.99699 q 0,0 1.07892,1.07892 0,0.95904 0.11988,1.1988 l 0.35964,0.23976 q 1.1988,1.43856 1.1988,2.3976 z m -9.35063,0.83915 -0.35964,-2.27771 -3.71627,-4.67532 -1.1988,0 -1.31868,-3.23675 q -2.63735,-1.1988 -3.59639,-1.91808 l -0.35964,-1.43856 -0.5994,-0.47952 -3.5964,-1.07892 -1.07891,-1.91807 -8.51147,-4.67532 q -0.11988,0 -0.5994,0 -0.35964,0.11988 -0.5994,0.11988 -1.7982,0 -3.23676,-1.07892 l -0.35964,-0.95903 -2.27771,0 -0.5994,-0.47952 -1.55844,-0.35964 q -0.35964,0.11988 -0.95904,0.11988 -1.07892,0 -1.31868,-0.47952 l -0.11988,-0.35964 -1.43856,-0.95904 -2.15783,-0.11988 q -1.1988,-1.1988 -2.51748,-1.1988 l -0.83916,1.91808 -0.5994,0 1.31868,2.87711 -0.71928,0.95904 q 0.95904,2.27772 0.95904,2.87712 l 0,0.5994 q 0,0.83916 -0.23976,1.43856 l 1.07892,3.11687 -1.07892,0.35964 0.11988,0.71928 0,3.95604 q 0,0.23976 -0.47952,2.63735 l 0.83916,0.71928 -1.31868,3.5964 0.35964,2.63735 -1.07892,2.27772 1.07892,1.67832 -0.23976,2.39759 0.5994,1.43856 -0.71928,1.67832 0.11988,0.47952 1.1988,-0.11988 4.07592,-0.5994 q 1.43855,-0.47952 3.11687,-0.47952 1.7982,0 3.11688,0.47952 2.39759,0 5.39459,-1.67832 5.75423,-0.35964 4.43555,-0.35964 0.47952,0 1.07892,0.11988 0.5994,0.11988 0.83916,0.11988 1.31868,0 1.7982,-0.5994 l 1.91808,-0.47952 q 1.79819,-1.19879 3.35663,-1.19879 0.5994,0 1.43856,0.35964 0.95904,-0.35964 1.43856,-0.35964 l 1.31868,-1.7982 1.91807,0.47952 0.83916,-0.35964 1.67832,-1.1988 0.71928,0 3.11687,-2.27772 0.11988,-0.95904 z" />
        <path
           inkscape:connector-curvature="0"
           id="path4199"
           style="font-style:normal;font-variant:normal;font-weight:bold;font-stretch:normal;font-size:medium;line-height:125%;font-family:'Bradley Hand ITC TT';-inkscape-font-specification:'Bradley Hand ITC TT, Bold';text-align:start;letter-spacing:20px;word-spacing:0px;writing-mode:lr-tb;text-anchor:start;fill:#ffffff;fill-opacity:1;stroke:none;stroke-width:1px;stroke-linecap:butt;stroke-linejoin:miter;stroke-opacity:1"
           d="m 467.76138,307.74146 q 0,0.11987 0,0.35963 -0.11988,0.23976 -0.11988,0.35964 l -0.47952,1.1988 -0.35964,1.7982 -2.39759,3.23676 -0.83916,1.79819 -2.51748,1.07892 -0.83916,1.07892 -3.35663,0.95904 -2.15784,1.1988 -1.07892,0 -0.71928,1.07892 -3.11687,0 q -1.43856,1.79819 -4.43556,1.79819 -0.47952,-0.47952 -0.5994,-0.47952 -0.23976,0 -1.55844,0.83916 l -2.03795,-0.23976 -0.83916,0.35964 -2.27772,-0.23976 0.5994,0.35964 q -2.87712,0.71928 -4.19579,0.71928 -0.5994,0 -0.83916,-0.11988 -3.47652,1.07892 -5.63435,1.07892 -0.11988,0 -0.5994,-0.11988 -0.35964,0 -0.5994,0 l -1.7982,0.47952 -1.55844,-0.5994 -0.83916,0.35964 -1.55844,1.55844 -2.15783,-0.47952 q -0.35964,-0.11988 -1.31868,-0.47952 l -0.23976,0.11988 -1.43856,0.35964 -0.23976,2.3976 -0.71928,1.91807 -3.71627,4.31568 -1.55844,-1.43856 -2.51748,0 0.5994,-4.1958 0,-1.43855 -0.83916,-0.5994 q -0.47952,0.23976 -1.67831,0.95904 l -3.23676,0 -2.27772,-1.55844 -0.95903,-2.75724 1.67831,-1.55844 q 2.03796,-1.91807 5.63436,-2.75723 l -0.11988,-0.23976 q -0.23976,-0.71928 -0.23976,-1.1988 0,-0.83916 0.47952,-1.67832 l -0.35964,-5.51447 0.59939,-1.43856 0,-2.51748 0.5994,-1.31867 -1.43855,-2.3976 1.67831,-3.35664 -0.5994,-7.19279 0.23976,-2.75723 0,-1.7982 -1.07891,-2.63736 0,-3.71627 -0.71928,-1.67832 -0.71928,-0.35964 -2.63736,1.1988 -4.55543,0.35964 q -2.15784,0 -3.11688,-4.07591 l -0.83916,-3.71628 q 2.997,-2.51748 5.51448,-2.51748 l 0.23975,0 q 3.47652,-0.95903 6.23376,-0.95903 0.35964,0 1.07891,0.35963 0.71928,0.23976 1.31868,0.23976 -0.11988,0 2.997,-0.71927 l 0.47952,1.31867 1.67832,-0.35964 1.07891,0.35964 1.55844,-0.35964 4.67532,1.07892 1.55843,0.95904 3.47652,-0.5994 1.31868,2.03796 0.71928,0.11988 2.03795,1.31868 1.1988,0.11988 1.43856,0.5994 0.47952,0 q 1.91808,0 3.35663,1.07892 3.47652,0.95903 5.3946,3.11687 0.95904,0.23976 1.67832,0.5994 1.55843,1.1988 3.23675,1.31868 l 3.35664,2.39759 3.23675,2.75724 -0.35964,0.35964 2.75724,-0.23976 1.1988,0.83916 0.35964,1.7982 q 3.23675,2.63735 6.35363,6.47351 0.11988,0.35964 0.23976,0.83916 l 1.91807,1.07892 0,2.99699 q 0,0 1.07892,1.07892 0,0.95904 0.11988,1.1988 l 0.35964,0.23976 q 1.1988,1.43856 1.1988,2.3976 z m -9.35063,0.83915 -0.35964,-2.27771 -3.71627,-4.67532 -1.1988,0 -1.31868,-3.23675 q -2.63735,-1.1988 -3.59639,-1.91808 l -0.35964,-1.43856 -0.5994,-0.47952 -3.5964,-1.07892 -1.07891,-1.91807 -8.51147,-4.67532 q -0.11988,0 -0.5994,0 -0.35964,0.11988 -0.5994,0.11988 -1.7982,0 -3.23676,-1.07892 l -0.35964,-0.95903 -2.27771,0 -0.5994,-0.47952 -1.55844,-0.35964 q -0.35964,0.11988 -0.95904,0.11988 -1.07892,0 -1.31868,-0.47952 l -0.11988,-0.35964 -1.43856,-0.95904 -2.15783,-0.11988 q -1.1988,-1.1988 -2.51748,-1.1988 l -0.83916,1.91808 -0.5994,0 1.31868,2.87711 -0.71928,0.95904 q 0.95904,2.27772 0.95904,2.87712 l 0,0.5994 q 0,0.83916 -0.23976,1.43856 l 1.07892,3.11687 -1.07892,0.35964 0.11988,0.71928 0,3.95604 q 0,0.23976 -0.47952,2.63735 l 0.83916,0.71928 -1.31868,3.5964 0.35964,2.63735 -1.07892,2.27772 1.07892,1.67832 -0.23976,2.39759 0.5994,1.43856 -0.71928,1.67832 0.11988,0.47952 1.1988,-0.11988 4.07592,-0.5994 q 1.43855,-0.47952 3.11687,-0.47952 1.7982,0 3.11688,0.47952 2.39759,0 5.39459,-1.67832 5.75423,-0.35964 4.43555,-0.35964 0.47952,0 1.07892,0.11988 0.5994,0.11988 0.83916,0.11988 1.31868,0 1.7982,-0.5994 l 1.91808,-0.47952 q 1.79819,-1.19879 3.35663,-1.19879 0.5994,0 1.43856,0.35964 0.95904,-0.35964 1.43856,-0.35964 l 1.31868,-1.7982 1.91807,0.47952 0.83916,-0.35964 1.67832,-1.1988 0.71928,0 3.11687,-2.27772 0.11988,-0.95904 z" />
      </g>
      <g
         transform="translate(98,0)"
         id="g4268">
        <path
           inkscape:connector-curvature="0"
           id="path4230"
           style="font-style:normal;font-variant:normal;font-weight:bold;font-stretch:normal;font-size:medium;line-height:125%;font-family:'Bradley Hand ITC TT';-inkscape-font-specification:'Bradley Hand ITC TT, Bold';text-align:start;letter-spacing:20px;word-spacing:0px;writing-mode:lr-tb;text-anchor:start;fill:#280b0b;fill-opacity:0;stroke:#000000;stroke-width:5.33867931;stroke-linecap:round;stroke-linejoin:round;stroke-miterlimit:4;stroke-dasharray:none;stroke-opacity:1;filter:url(#filter4188)"
           d="m 158.19984,314.53824 q 0,0.48 -0.72,1.2 -0.2,0.64 -0.6,1.04 l -0.24,0.04 -0.44,0.76 -0.72,0.12 -0.76,0.48 -0.4,0.72 -0.44,-0.08 q -0.44,0.2 -0.72,0.24 l -0.24,0.36 q -0.12,-0.04 -0.36,-0.04 -0.52,0 -1,0.72 l -0.56,-0.48 q -0.16,0.04 -0.48,0.04 -0.52,0 -0.88,-0.16 l -0.68,0 -0.32,-0.2 q -1.52,-0.24 -1.92,-1.16 l 0,-0.12 -0.48,-0.24 -0.24,-0.68 -0.48,-0.32 0,-0.6 -0.48,-1.76 0.08,-1.44 0.16,-0.64 0,-0.84 0.2,-0.64 -0.04,-0.28 0.28,-0.48 -0.08,0.08 q 0,-0.36 0.2,-0.76 l 0,-0.2 -0.12,-0.96 q 0,-0.68 0.6,-1.2 0.04,-0.08 0.04,-0.24 0,-0.16 -0.16,-0.64 -0.12,-0.52 -0.12,-0.72 0,-0.48 0.24,-1 0.32,0.48 0.92,0.48 l 0.12,0 q 0.08,-0.16 0.36,-0.36 0.32,-1 0.88,-1.68 l 0.16,-0.16 q 0,-0.16 0.24,-0.92 l 0.32,0 0.08,-0.2 0.32,-0.08 q 0.2,-0.32 0.24,-0.36 0.08,-0.08 0.88,-0.52 0.16,-0.28 0.48,-0.52 0.16,-0.08 0.4,-0.16 l 0.16,-0.24 q 1.08,-0.36 1.36,-0.36 0.32,0 0.6,0.16 l 0.2,-0.04 0.28,0.16 q 0.48,0.36 0.96,0.6 l 0.68,0.52 0,0.16 q 0.92,0.72 0.92,2.04 l -0.12,0.4 0.12,1.32 -0.36,0.24 -0.4,1.04 -0.76,0.84 -0.04,0.64 q -1.28,0.92 -2.36,1.48 -0.36,0.56 -1.12,0.56 l -0.12,0 -0.76,0.48 -0.64,0 -0.96,0.4 -0.72,-0.36 -0.08,0 q -0.08,0.32 -0.16,0.96 l -0.32,0.24 -0.04,0.48 -0.24,0.68 q 0.12,0.96 0.12,1.24 l -0.16,0.12 q 0,0.52 -0.04,0.76 0,0.04 -0.04,0.12 0,0.08 0,0.12 0,0.32 0.32,0.52 0.12,0.48 0.4,0.6 l 0.28,0.24 0.88,0.24 0,0.12 0.32,0.08 1.36,0.08 0.8,-0.12 0.4,-0.28 0.24,-0.08 0.4,-0.6 0.2,-0.04 1,-0.32 q 0.16,-0.28 0.52,-0.48 l 0.12,-0.2 q 0.8,-0.16 0.92,-0.84 0.56,-0.56 1.44,-0.56 l 0.16,0 q 0.76,0.88 0.76,1.44 z m -3.96,-11.52 q 0,-0.12 -0.12,-0.48 l -0.2,-0.04 -0.08,0.04 q -0.04,0 -0.16,0 -0.08,0.04 -0.16,0.04 -0.04,0 -0.12,-0.04 -0.08,0 -0.12,0 l -0.4,0.28 -0.36,0.04 -0.2,0.08 -0.68,0.88 -0.44,0.32 -0.64,1.12 -0.36,0.24 q -0.12,0.68 -0.56,1.16 l -0.16,0.28 q 0.44,-0.28 1,-0.28 l 0.28,-0.12 0.12,-0.36 0.56,0.04 0.32,-0.48 0.24,0 0.44,0.16 0.2,-0.6 0.28,0 0,-0.44 0.52,-0.12 0.12,-0.12 0.08,-0.36 0.52,-0.76 q 0.08,-0.2 0.08,-0.48 z"
           transform="matrix(2.9969959,0,0,2.9969959,-139.22575,-620.78999)" />
        <path
           inkscape:connector-curvature="0"
           id="path4219"
           style="font-style:normal;font-variant:normal;font-weight:bold;font-stretch:normal;font-size:medium;line-height:125%;font-family:'Bradley Hand ITC TT';-inkscape-font-specification:'Bradley Hand ITC TT, Bold';text-align:start;letter-spacing:20px;word-spacing:0px;writing-mode:lr-tb;text-anchor:start;fill:#ffffff;fill-opacity:0;stroke:#ffffff;stroke-width:16;stroke-linecap:round;stroke-linejoin:round;stroke-miterlimit:4;stroke-dasharray:none;stroke-opacity:1"
           d="m 331.34373,321.88728 q 0,1.43855 -2.15784,3.59639 -0.59939,1.91808 -1.79819,3.11688 l -0.71928,0.11988 -1.31868,2.27771 -2.15784,0.35964 -2.27771,1.43856 -1.1988,2.15784 -1.31868,-0.23976 q -1.31868,0.5994 -2.15784,0.71928 l -0.71928,1.07892 q -0.35964,-0.11988 -1.07892,-0.11988 -1.55843,0 -2.99699,2.15783 l -1.67832,-1.43856 q -0.47952,0.11988 -1.43856,0.11988 -1.55843,0 -2.63735,-0.47951 l -2.03796,0 -0.95904,-0.5994 q -4.55543,-0.71928 -5.75423,-3.47652 l 0,-0.35964 -1.43856,-0.71928 -0.71928,-2.03795 -1.43856,-0.95904 0,-1.7982 -1.43855,-5.27471 0.23976,-4.31568 0.47951,-1.91808 0,-2.51747 0.5994,-1.91808 -0.11988,-0.83916 0.83916,-1.43856 -0.23976,0.23976 q 0,-1.07891 0.5994,-2.27771 l 0,-0.5994 -0.35964,-2.87712 q 0,-2.03796 1.7982,-3.59639 0.11988,-0.23976 0.11988,-0.71928 0,-0.47952 -0.47952,-1.91808 -0.35964,-1.55844 -0.35964,-2.15784 0,-1.43856 0.71928,-2.99699 0.95904,1.43856 2.75724,1.43856 l 0.35964,0 q 0.23976,-0.47952 1.07891,-1.07892 0.95904,-2.997 2.63736,-5.03496 l 0.47952,-0.47952 q 0,-0.47952 0.71928,-2.75723 l 0.95904,0 0.23976,-0.5994 0.95904,-0.23976 q 0.5994,-0.95904 0.71928,-1.07892 0.23976,-0.23976 2.63735,-1.55844 0.47952,-0.83916 1.43856,-1.55844 0.47952,-0.23975 1.1988,-0.47951 l 0.47952,-0.71928 q 3.23675,-1.07892 4.07591,-1.07892 0.95904,0 1.7982,0.47952 l 0.5994,-0.11988 0.83916,0.47952 q 1.43856,1.07892 2.87711,1.79819 l 2.03796,1.55844 0,0.47952 q 2.75724,2.15784 2.75724,6.11387 l -0.35964,1.1988 0.35964,3.95604 -1.07892,0.71928 -1.1988,3.11687 -2.27772,2.51748 -0.11988,1.91807 q -3.83615,2.75724 -7.07291,4.43556 -1.07892,1.67832 -3.35663,1.67832 l -0.35964,0 -2.27772,1.43855 -1.91808,0 -2.87711,1.1988 -2.15784,-1.07892 -0.23976,0 q -0.23976,0.95904 -0.47952,2.87712 l -0.95904,0.71928 -0.11988,1.43856 -0.71928,2.03795 q 0.35964,2.87712 0.35964,3.71628 l -0.47952,0.35964 q 0,1.55844 -0.11988,2.27772 0,0.11988 -0.11988,0.35964 0,0.23976 0,0.35963 0,0.95904 0.95904,1.55844 0.35964,1.43856 1.1988,1.7982 l 0.83916,0.71928 2.63736,0.71928 0,0.35964 0.95904,0.23976 4.07591,0.23976 2.3976,-0.35964 1.1988,-0.83916 0.71927,-0.23976 1.1988,-1.7982 0.5994,-0.11988 2.997,-0.95904 q 0.47952,-0.83916 1.55844,-1.43855 l 0.35964,-0.5994 q 2.39759,-0.47952 2.75723,-2.51748 1.67832,-1.67832 4.31568,-1.67832 l 0.47951,0 q 2.27772,2.63736 2.27772,4.31568 z m -11.8681,-34.5254 q 0,-0.35964 -0.35964,-1.43856 l -0.5994,-0.11987 -0.23976,0.11987 q -0.11988,0 -0.47952,0 -0.23976,0.11988 -0.47952,0.11988 -0.11988,0 -0.35964,-0.11988 -0.23976,0 -0.35964,0 l -1.1988,0.83916 -1.07891,0.11988 -0.5994,0.23976 -2.03796,2.63736 -1.31868,0.95904 -1.91808,3.35663 -1.07892,0.71928 q -0.35963,2.03796 -1.67831,3.47652 l -0.47952,0.83916 q 1.31868,-0.83916 2.99699,-0.83916 l 0.83916,-0.35964 0.35964,-1.07892 1.67832,0.11988 0.95904,-1.43856 0.71928,0 1.31868,0.47952 0.59939,-1.7982 0.83916,0 0,-1.31867 1.55844,-0.35964 0.35964,-0.35964 0.23976,-1.07892 1.55844,-2.27772 q 0.23976,-0.5994 0.23976,-1.43856 z" />
        <path
           inkscape:connector-curvature="0"
           id="path4208"
           style="font-style:normal;font-variant:normal;font-weight:bold;font-stretch:normal;font-size:medium;line-height:125%;font-family:'Bradley Hand ITC TT';-inkscape-font-specification:'Bradley Hand ITC TT, Bold';text-align:start;letter-spacing:20px;word-spacing:0px;writing-mode:lr-tb;text-anchor:start;fill:#000000;fill-opacity:0;stroke:#000080;stroke-width:8;stroke-linecap:round;stroke-linejoin:round;stroke-miterlimit:4;stroke-dasharray:none;stroke-opacity:1"
           d="m 331.34373,321.88728 q 0,1.43855 -2.15784,3.59639 -0.59939,1.91808 -1.79819,3.11688 l -0.71928,0.11988 -1.31868,2.27771 -2.15784,0.35964 -2.27771,1.43856 -1.1988,2.15784 -1.31868,-0.23976 q -1.31868,0.5994 -2.15784,0.71928 l -0.71928,1.07892 q -0.35964,-0.11988 -1.07892,-0.11988 -1.55843,0 -2.99699,2.15783 l -1.67832,-1.43856 q -0.47952,0.11988 -1.43856,0.11988 -1.55843,0 -2.63735,-0.47951 l -2.03796,0 -0.95904,-0.5994 q -4.55543,-0.71928 -5.75423,-3.47652 l 0,-0.35964 -1.43856,-0.71928 -0.71928,-2.03795 -1.43856,-0.95904 0,-1.7982 -1.43855,-5.27471 0.23976,-4.31568 0.47951,-1.91808 0,-2.51747 0.5994,-1.91808 -0.11988,-0.83916 0.83916,-1.43856 -0.23976,0.23976 q 0,-1.07891 0.5994,-2.27771 l 0,-0.5994 -0.35964,-2.87712 q 0,-2.03796 1.7982,-3.59639 0.11988,-0.23976 0.11988,-0.71928 0,-0.47952 -0.47952,-1.91808 -0.35964,-1.55844 -0.35964,-2.15784 0,-1.43856 0.71928,-2.99699 0.95904,1.43856 2.75724,1.43856 l 0.35964,0 q 0.23976,-0.47952 1.07891,-1.07892 0.95904,-2.997 2.63736,-5.03496 l 0.47952,-0.47952 q 0,-0.47952 0.71928,-2.75723 l 0.95904,0 0.23976,-0.5994 0.95904,-0.23976 q 0.5994,-0.95904 0.71928,-1.07892 0.23976,-0.23976 2.63735,-1.55844 0.47952,-0.83916 1.43856,-1.55844 0.47952,-0.23975 1.1988,-0.47951 l 0.47952,-0.71928 q 3.23675,-1.07892 4.07591,-1.07892 0.95904,0 1.7982,0.47952 l 0.5994,-0.11988 0.83916,0.47952 q 1.43856,1.07892 2.87711,1.79819 l 2.03796,1.55844 0,0.47952 q 2.75724,2.15784 2.75724,6.11387 l -0.35964,1.1988 0.35964,3.95604 -1.07892,0.71928 -1.1988,3.11687 -2.27772,2.51748 -0.11988,1.91807 q -3.83615,2.75724 -7.07291,4.43556 -1.07892,1.67832 -3.35663,1.67832 l -0.35964,0 -2.27772,1.43855 -1.91808,0 -2.87711,1.1988 -2.15784,-1.07892 -0.23976,0 q -0.23976,0.95904 -0.47952,2.87712 l -0.95904,0.71928 -0.11988,1.43856 -0.71928,2.03795 q 0.35964,2.87712 0.35964,3.71628 l -0.47952,0.35964 q 0,1.55844 -0.11988,2.27772 0,0.11988 -0.11988,0.35964 0,0.23976 0,0.35963 0,0.95904 0.95904,1.55844 0.35964,1.43856 1.1988,1.7982 l 0.83916,0.71928 2.63736,0.71928 0,0.35964 0.95904,0.23976 4.07591,0.23976 2.3976,-0.35964 1.1988,-0.83916 0.71927,-0.23976 1.1988,-1.7982 0.5994,-0.11988 2.997,-0.95904 q 0.47952,-0.83916 1.55844,-1.43855 l 0.35964,-0.5994 q 2.39759,-0.47952 2.75723,-2.51748 1.67832,-1.67832 4.31568,-1.67832 l 0.47951,0 q 2.27772,2.63736 2.27772,4.31568 z m -11.8681,-34.5254 q 0,-0.35964 -0.35964,-1.43856 l -0.5994,-0.11987 -0.23976,0.11987 q -0.11988,0 -0.47952,0 -0.23976,0.11988 -0.47952,0.11988 -0.11988,0 -0.35964,-0.11988 -0.23976,0 -0.35964,0 l -1.1988,0.83916 -1.07891,0.11988 -0.5994,0.23976 -2.03796,2.63736 -1.31868,0.95904 -1.91808,3.35663 -1.07892,0.71928 q -0.35963,2.03796 -1.67831,3.47652 l -0.47952,0.83916 q 1.31868,-0.83916 2.99699,-0.83916 l 0.83916,-0.35964 0.35964,-1.07892 1.67832,0.11988 0.95904,-1.43856 0.71928,0 1.31868,0.47952 0.59939,-1.7982 0.83916,0 0,-1.31867 1.55844,-0.35964 0.35964,-0.35964 0.23976,-1.07892 1.55844,-2.27772 q 0.23976,-0.5994 0.23976,-1.43856 z" />
        <path
           inkscape:connector-curvature="0"
           id="path4197"
           style="font-style:normal;font-variant:normal;font-weight:bold;font-stretch:normal;font-size:medium;line-height:125%;font-family:'Bradley Hand ITC TT';-inkscape-font-specification:'Bradley Hand ITC TT, Bold';text-align:start;letter-spacing:20px;word-spacing:0px;writing-mode:lr-tb;text-anchor:start;fill:#ffffff;fill-opacity:1;stroke:none;stroke-width:1px;stroke-linecap:butt;stroke-linejoin:miter;stroke-opacity:1"
           d="m 331.34373,321.88728 q 0,1.43855 -2.15784,3.59639 -0.59939,1.91808 -1.79819,3.11688 l -0.71928,0.11988 -1.31868,2.27771 -2.15784,0.35964 -2.27771,1.43856 -1.1988,2.15784 -1.31868,-0.23976 q -1.31868,0.5994 -2.15784,0.71928 l -0.71928,1.07892 q -0.35964,-0.11988 -1.07892,-0.11988 -1.55843,0 -2.99699,2.15783 l -1.67832,-1.43856 q -0.47952,0.11988 -1.43856,0.11988 -1.55843,0 -2.63735,-0.47951 l -2.03796,0 -0.95904,-0.5994 q -4.55543,-0.71928 -5.75423,-3.47652 l 0,-0.35964 -1.43856,-0.71928 -0.71928,-2.03795 -1.43856,-0.95904 0,-1.7982 -1.43855,-5.27471 0.23976,-4.31568 0.47951,-1.91808 0,-2.51747 0.5994,-1.91808 -0.11988,-0.83916 0.83916,-1.43856 -0.23976,0.23976 q 0,-1.07891 0.5994,-2.27771 l 0,-0.5994 -0.35964,-2.87712 q 0,-2.03796 1.7982,-3.59639 0.11988,-0.23976 0.11988,-0.71928 0,-0.47952 -0.47952,-1.91808 -0.35964,-1.55844 -0.35964,-2.15784 0,-1.43856 0.71928,-2.99699 0.95904,1.43856 2.75724,1.43856 l 0.35964,0 q 0.23976,-0.47952 1.07891,-1.07892 0.95904,-2.997 2.63736,-5.03496 l 0.47952,-0.47952 q 0,-0.47952 0.71928,-2.75723 l 0.95904,0 0.23976,-0.5994 0.95904,-0.23976 q 0.5994,-0.95904 0.71928,-1.07892 0.23976,-0.23976 2.63735,-1.55844 0.47952,-0.83916 1.43856,-1.55844 0.47952,-0.23975 1.1988,-0.47951 l 0.47952,-0.71928 q 3.23675,-1.07892 4.07591,-1.07892 0.95904,0 1.7982,0.47952 l 0.5994,-0.11988 0.83916,0.47952 q 1.43856,1.07892 2.87711,1.79819 l 2.03796,1.55844 0,0.47952 q 2.75724,2.15784 2.75724,6.11387 l -0.35964,1.1988 0.35964,3.95604 -1.07892,0.71928 -1.1988,3.11687 -2.27772,2.51748 -0.11988,1.91807 q -3.83615,2.75724 -7.07291,4.43556 -1.07892,1.67832 -3.35663,1.67832 l -0.35964,0 -2.27772,1.43855 -1.91808,0 -2.87711,1.1988 -2.15784,-1.07892 -0.23976,0 q -0.23976,0.95904 -0.47952,2.87712 l -0.95904,0.71928 -0.11988,1.43856 -0.71928,2.03795 q 0.35964,2.87712 0.35964,3.71628 l -0.47952,0.35964 q 0,1.55844 -0.11988,2.27772 0,0.11988 -0.11988,0.35964 0,0.23976 0,0.35963 0,0.95904 0.95904,1.55844 0.35964,1.43856 1.1988,1.7982 l 0.83916,0.71928 2.63736,0.71928 0,0.35964 0.95904,0.23976 4.07591,0.23976 2.3976,-0.35964 1.1988,-0.83916 0.71927,-0.23976 1.1988,-1.7982 0.5994,-0.11988 2.997,-0.95904 q 0.47952,-0.83916 1.55844,-1.43855 l 0.35964,-0.5994 q 2.39759,-0.47952 2.75723,-2.51748 1.67832,-1.67832 4.31568,-1.67832 l 0.47951,0 q 2.27772,2.63736 2.27772,4.31568 z m -11.8681,-34.5254 q 0,-0.35964 -0.35964,-1.43856 l -0.5994,-0.11987 -0.23976,0.11987 q -0.11988,0 -0.47952,0 -0.23976,0.11988 -0.47952,0.11988 -0.11988,0 -0.35964,-0.11988 -0.23976,0 -0.35964,0 l -1.1988,0.83916 -1.07891,0.11988 -0.5994,0.23976 -2.03796,2.63736 -1.31868,0.95904 -1.91808,3.35663 -1.07892,0.71928 q -0.35963,2.03796 -1.67831,3.47652 l -0.47952,0.83916 q 1.31868,-0.83916 2.99699,-0.83916 l 0.83916,-0.35964 0.35964,-1.07892 1.67832,0.11988 0.95904,-1.43856 0.71928,0 1.31868,0.47952 0.59939,-1.7982 0.83916,0 0,-1.31867 1.55844,-0.35964 0.35964,-0.35964 0.23976,-1.07892 1.55844,-2.27772 q 0.23976,-0.5994 0.23976,-1.43856 z" />
      </g>
      <g
         transform="translate(170,-12)"
         id="g4274">
        <path
           inkscape:connector-curvature="0"
           id="path4228"
           style="font-style:normal;font-variant:normal;font-weight:bold;font-stretch:normal;font-size:medium;line-height:125%;font-family:'Bradley Hand ITC TT';-inkscape-font-specification:'Bradley Hand ITC TT, Bold';text-align:start;letter-spacing:20px;word-spacing:0px;writing-mode:lr-tb;text-anchor:start;fill:#280b0b;fill-opacity:0;stroke:#000000;stroke-width:5.33867931;stroke-linecap:round;stroke-linejoin:round;stroke-miterlimit:4;stroke-dasharray:none;stroke-opacity:1;filter:url(#filter4188)"
           d="m 121.86484,311.57824 -0.36,0.36 0.12,0.96 -0.92,1.12 0,0.48 -0.32,0.32 0.24,0.36 -0.8,0.76 -0.52,0.88 -0.84,0.48 q -0.48,0.48 -1.04,0.52 l -0.32,0.72 -0.4,-0.36 -0.4,0.52 q 0,-0.2 -0.32,-0.52 l -0.28,-0.16 -0.32,0.36 -0.12,0 -0.32,0.4 -0.52,-0.32 -0.84,0.36 -0.52,-0.48 q -0.12,0.04 -0.36,0.04 -0.64,0 -1.6,-0.36 l -0.56,-0.28 -0.2,-0.2 -0.64,-0.24 -0.28,-0.84 q -0.68,-0.04 -1.4,-0.32 l -0.84,-1.8 0.12,-0.28 -0.2,-0.32 0,-0.72 -0.24,-0.4 0.16,-0.48 q -0.12,-0.44 -0.12,-0.76 0,-0.08 0.04,-0.16 0,-0.12 0,-0.16 l 0,-1.24 0.16,-0.4 0.04,-2.36 0.12,-0.56 -0.2,-0.24 0.36,-1.12 -0.12,-0.36 0,-0.88 0.2,-0.24 -0.04,-0.56 -0.16,-0.4 0.36,-1.28 -0.28,-1.6 0.12,-0.12 0,-0.52 q 0.04,-0.2 0.04,-0.64 0,-0.56 -0.08,-0.88 l 0.08,-0.28 -0.32,-1.16 q 0.08,-0.28 0.28,-0.4 -0.08,-0.12 -0.2,-0.28 0.12,-0.24 0.12,-0.48 0,-0.32 -0.28,-0.72 0,-0.36 0.12,-0.64 l -0.16,-0.4 0.2,-0.44 -0.64,-1.36 0.64,-0.12 0,-0.08 1.4,-0.72 0.72,0.84 0.08,0.4 0.6,0.44 -0.04,0.6 q 0,0.32 -0.08,0.88 0.28,0.28 0.28,0.52 0,0.12 -0.08,0.28 l 0.16,0.16 -0.16,0.64 0.28,0.72 -0.04,0.28 0.52,0.24 -0.28,0.52 -0.24,1.04 q -0.04,0.24 -0.16,0.72 0.12,0.24 0.12,1.08 l -0.08,0.32 0.12,0.32 -0.2,0.64 q 0,0.36 -0.12,0.72 l -0.04,0.12 q 0.2,0.2 0.44,0.52 l -0.44,0.84 0.12,0.48 -0.08,0.24 q 0,0.32 -0.12,0.76 l 0.04,0.16 -0.04,0.44 -0.04,0.6 -0.12,1.28 0.52,0.12 0.08,-1.24 0.28,-0.84 0.16,0.08 0.24,-0.6 q 0.16,-0.72 0.64,-1.36 0.08,-0.16 0.24,-0.32 l 0.12,-0.12 0,0.08 0.16,-0.48 0.48,-0.52 0.28,-0.28 0.04,-0.16 0.24,-0.32 q 0,-0.52 0.36,-0.76 l 0.08,-0.32 0.52,-0.16 0.2,-0.12 0.08,-0.24 -0.04,-0.56 0.6,-0.12 0.32,-0.12 -0.28,-0.28 0.64,-0.16 0.68,-0.52 1.24,0 0.76,0.44 0.24,0.04 0.68,0.96 0.04,0.4 0.32,0.04 0.12,0.84 0.4,0.32 0,0.6 0.24,0.28 0.28,0.16 0.16,1.28 0,0.12 q 0,0.2 0.24,0.56 0.24,0.32 0.24,0.56 0,0.24 -0.12,0.48 l 0.48,0.2 q -0.08,0.56 -0.28,0.88 l 0.12,0.88 q 0.16,0.4 0.16,0.6 0,0.12 -0.08,0.44 l -0.04,1.72 0.16,0.36 -0.16,0.64 0.2,0.72 z m -2.68,-3 -0.08,-0.72 0,-0.68 -0.28,-1.84 -0.36,-1.32 -0.52,-1.16 -0.88,-1.4 -0.2,0.08 -0.16,0.2 -0.2,0 q -0.16,0.72 -0.88,0.76 -0.32,0.44 -0.84,1.2 l -0.48,0.44 -0.16,0.6 -0.4,0.48 -0.4,1 q 0,0.68 -0.52,1.48 l -0.24,0.36 0.04,0.64 -0.64,0.88 -0.32,1.4 -0.28,0.16 q 0,0.04 0.04,0.16 0,0.12 0,0.2 0,0.72 -0.36,1.44 l 0.24,0.72 -0.48,0.2 -0.08,0.16 -0.32,0.32 0.88,0.2 0.52,0.28 0.8,-0.12 0.72,0.32 0,0.56 0.16,0.16 0.96,0 0.64,-0.12 q 0.24,-0.36 0.72,-0.36 l 0.12,0 0.32,-0.12 -0.16,-0.48 1.12,0 q 0.36,-1.04 1.32,-1.84 l 0,-0.4 0.48,-0.88 0,-0.92 0.12,-1.04 -0.08,-0.64 0.12,-0.36 z"
           transform="matrix(2.9969959,0,0,2.9969959,-139.22575,-620.78999)" />
        <path
           inkscape:connector-curvature="0"
           id="path4217"
           style="font-style:normal;font-variant:normal;font-weight:bold;font-stretch:normal;font-size:medium;line-height:125%;font-family:'Bradley Hand ITC TT';-inkscape-font-specification:'Bradley Hand ITC TT, Bold';text-align:start;letter-spacing:20px;word-spacing:0px;writing-mode:lr-tb;text-anchor:start;fill:#ffffff;fill-opacity:0;stroke:#ffffff;stroke-width:16;stroke-linecap:round;stroke-linejoin:round;stroke-miterlimit:4;stroke-dasharray:none;stroke-opacity:1"
           d="m 222.44789,313.01617 -1.07892,1.07892 0.35964,2.87711 -2.75724,3.35664 0,1.43856 -0.95904,0.95903 0.71928,1.07892 -2.3976,2.27772 -1.55843,2.63736 -2.51748,1.43855 q -1.43856,1.43856 -3.11688,1.55844 l -0.95903,2.15784 -1.1988,-1.07892 -1.1988,1.55844 q 0,-0.5994 -0.95904,-1.55844 l -0.83916,-0.47952 -0.95904,1.07892 -0.35964,0 -0.95904,1.1988 -1.55843,-0.95904 -2.51748,1.07892 -1.55844,-1.43856 q -0.35964,0.11988 -1.07892,0.11988 -1.91807,0 -4.79519,-1.07892 l -1.67832,-0.83916 -0.5994,-0.5994 -1.91807,-0.71928 -0.83916,-2.51747 q -2.03796,-0.11988 -4.1958,-0.95904 l -2.51747,-5.39459 0.35964,-0.83916 -0.5994,-0.95904 0,-2.15784 -0.71928,-1.1988 0.47952,-1.43855 q -0.35964,-1.31868 -0.35964,-2.27772 0,-0.23976 0.11988,-0.47952 0,-0.35964 0,-0.47952 l 0,-3.71627 0.47952,-1.1988 0.11988,-7.07291 0.35964,-1.67832 -0.5994,-0.71928 1.07892,-3.35664 -0.35964,-1.07891 0,-2.63736 0.59939,-0.71928 -0.11988,-1.67832 -0.47951,-1.1988 1.07891,-3.83615 -0.83915,-4.79519 0.35963,-0.35964 0,-1.55844 q 0.11988,-0.5994 0.11988,-1.91808 0,-1.67832 -0.23976,-2.63736 l 0.23976,-0.83915 -0.95903,-3.47652 q 0.23976,-0.83916 0.83915,-1.1988 -0.23975,-0.35964 -0.59939,-0.83916 0.35964,-0.71928 0.35964,-1.43855 0,-0.95904 -0.83916,-2.15784 0,-1.07892 0.35964,-1.91808 l -0.47952,-1.1988 0.5994,-1.31868 -1.91808,-4.07591 1.91808,-0.35964 0,-0.23976 4.19579,-2.15784 2.15784,2.51748 0.23976,1.1988 1.79819,1.31868 -0.11988,1.79819 q 0,0.95904 -0.23976,2.63736 0.83916,0.83916 0.83916,1.55844 0,0.35964 -0.23976,0.83916 l 0.47952,0.47952 -0.47952,1.91807 0.83916,2.15784 -0.11988,0.83916 1.55844,0.71928 -0.83916,1.55844 -0.71928,3.11687 q -0.11988,0.71928 -0.47952,2.15784 0.35964,0.71928 0.35964,3.23676 l -0.23976,0.95903 0.35964,0.95904 -0.5994,1.91808 q 0,1.07892 -0.35964,2.15784 l -0.11988,0.35964 q 0.5994,0.5994 1.31868,1.55843 l -1.31868,2.51748 0.35964,1.43856 -0.23976,0.71928 q 0,0.95904 -0.35964,2.27772 l 0.11988,0.47951 -0.11988,1.31868 -0.11988,1.7982 -0.35963,3.83616 1.55843,0.35963 0.23976,-3.71627 0.83916,-2.51748 0.47952,0.23976 0.71928,-1.79819 q 0.47952,-2.15784 1.91808,-4.07592 0.23976,-0.47952 0.71928,-0.95904 l 0.35964,-0.35964 0,0.23976 0.47952,-1.43856 1.43855,-1.55843 0.83916,-0.83916 0.11988,-0.47952 0.71928,-0.95904 q 0,-1.55844 1.07892,-2.27772 l 0.23976,-0.95904 1.55844,-0.47952 0.5994,-0.35963 0.23976,-0.71928 -0.11988,-1.67832 1.79819,-0.35964 0.95904,-0.35964 -0.83916,-0.83916 1.91808,-0.47952 2.03796,-1.55844 3.71627,0 2.27772,1.31868 0.71928,0.11988 2.03796,2.87712 0.11988,1.1988 0.95903,0.11988 0.35964,2.51747 1.1988,0.95904 0,1.7982 0.71928,0.83916 0.83916,0.47952 0.47952,3.83615 0,0.35964 q 0,0.5994 0.71928,1.67832 0.71928,0.95904 0.71928,1.67832 0,0.71928 -0.35964,1.43855 l 1.43856,0.5994 q -0.23976,1.67832 -0.83916,2.63736 l 0.35964,2.63736 q 0.47952,1.19879 0.47952,1.79819 0,0.35964 -0.23976,1.31868 l -0.11988,5.15483 0.47952,1.07892 -0.47952,1.91808 0.5994,2.15784 z m -8.03195,-8.99099 -0.23976,-2.15784 0,-2.03795 -0.83916,-5.51448 -1.07892,-3.95603 -1.55844,-3.47652 -2.63735,-4.19579 -0.5994,0.23976 -0.47952,0.5994 -0.5994,0 q -0.47952,2.15784 -2.63736,2.27772 -0.95904,1.31867 -2.51748,3.59639 l -1.43855,1.31868 -0.47952,1.7982 -1.1988,1.43855 -1.1988,2.997 q 0,2.03796 -1.55844,4.43555 l -0.71928,1.07892 0.11988,1.91808 -1.91807,2.63736 -0.95904,4.19579 -0.83916,0.47952 q 0,0.11988 0.11988,0.47952 0,0.35964 0,0.5994 0,2.15784 -1.07892,4.31567 l 0.71928,2.15784 -1.43856,0.5994 -0.23976,0.47952 -0.95904,0.95904 2.63736,0.5994 1.55844,0.83915 2.39759,-0.35963 2.15784,0.95903 0,1.67832 0.47952,0.47952 2.87712,0 1.91807,-0.35964 q 0.71928,-1.07892 2.15784,-1.07892 l 0.35964,0 0.95904,-0.35964 -0.47952,-1.43855 3.35663,0 q 1.07892,-3.11688 3.95604,-5.51448 l 0,-1.1988 1.43856,-2.63735 0,-2.75724 0.35964,-3.11687 -0.23976,-1.91808 0.35964,-1.07892 z" />
        <path
           inkscape:connector-curvature="0"
           id="path4206"
           style="font-style:normal;font-variant:normal;font-weight:bold;font-stretch:normal;font-size:medium;line-height:125%;font-family:'Bradley Hand ITC TT';-inkscape-font-specification:'Bradley Hand ITC TT, Bold';text-align:start;letter-spacing:20px;word-spacing:0px;writing-mode:lr-tb;text-anchor:start;fill:#000000;fill-opacity:0;stroke:#000080;stroke-width:8;stroke-linecap:round;stroke-linejoin:round;stroke-miterlimit:4;stroke-dasharray:none;stroke-opacity:1"
           d="m 222.44789,313.01617 -1.07892,1.07892 0.35964,2.87711 -2.75724,3.35664 0,1.43856 -0.95904,0.95903 0.71928,1.07892 -2.3976,2.27772 -1.55843,2.63736 -2.51748,1.43855 q -1.43856,1.43856 -3.11688,1.55844 l -0.95903,2.15784 -1.1988,-1.07892 -1.1988,1.55844 q 0,-0.5994 -0.95904,-1.55844 l -0.83916,-0.47952 -0.95904,1.07892 -0.35964,0 -0.95904,1.1988 -1.55843,-0.95904 -2.51748,1.07892 -1.55844,-1.43856 q -0.35964,0.11988 -1.07892,0.11988 -1.91807,0 -4.79519,-1.07892 l -1.67832,-0.83916 -0.5994,-0.5994 -1.91807,-0.71928 -0.83916,-2.51747 q -2.03796,-0.11988 -4.1958,-0.95904 l -2.51747,-5.39459 0.35964,-0.83916 -0.5994,-0.95904 0,-2.15784 -0.71928,-1.1988 0.47952,-1.43855 q -0.35964,-1.31868 -0.35964,-2.27772 0,-0.23976 0.11988,-0.47952 0,-0.35964 0,-0.47952 l 0,-3.71627 0.47952,-1.1988 0.11988,-7.07291 0.35964,-1.67832 -0.5994,-0.71928 1.07892,-3.35664 -0.35964,-1.07891 0,-2.63736 0.59939,-0.71928 -0.11988,-1.67832 -0.47951,-1.1988 1.07891,-3.83615 -0.83915,-4.79519 0.35963,-0.35964 0,-1.55844 q 0.11988,-0.5994 0.11988,-1.91808 0,-1.67832 -0.23976,-2.63736 l 0.23976,-0.83915 -0.95903,-3.47652 q 0.23976,-0.83916 0.83915,-1.1988 -0.23975,-0.35964 -0.59939,-0.83916 0.35964,-0.71928 0.35964,-1.43855 0,-0.95904 -0.83916,-2.15784 0,-1.07892 0.35964,-1.91808 l -0.47952,-1.1988 0.5994,-1.31868 -1.91808,-4.07591 1.91808,-0.35964 0,-0.23976 4.19579,-2.15784 2.15784,2.51748 0.23976,1.1988 1.79819,1.31868 -0.11988,1.79819 q 0,0.95904 -0.23976,2.63736 0.83916,0.83916 0.83916,1.55844 0,0.35964 -0.23976,0.83916 l 0.47952,0.47952 -0.47952,1.91807 0.83916,2.15784 -0.11988,0.83916 1.55844,0.71928 -0.83916,1.55844 -0.71928,3.11687 q -0.11988,0.71928 -0.47952,2.15784 0.35964,0.71928 0.35964,3.23676 l -0.23976,0.95903 0.35964,0.95904 -0.5994,1.91808 q 0,1.07892 -0.35964,2.15784 l -0.11988,0.35964 q 0.5994,0.5994 1.31868,1.55843 l -1.31868,2.51748 0.35964,1.43856 -0.23976,0.71928 q 0,0.95904 -0.35964,2.27772 l 0.11988,0.47951 -0.11988,1.31868 -0.11988,1.7982 -0.35963,3.83616 1.55843,0.35963 0.23976,-3.71627 0.83916,-2.51748 0.47952,0.23976 0.71928,-1.79819 q 0.47952,-2.15784 1.91808,-4.07592 0.23976,-0.47952 0.71928,-0.95904 l 0.35964,-0.35964 0,0.23976 0.47952,-1.43856 1.43855,-1.55843 0.83916,-0.83916 0.11988,-0.47952 0.71928,-0.95904 q 0,-1.55844 1.07892,-2.27772 l 0.23976,-0.95904 1.55844,-0.47952 0.5994,-0.35963 0.23976,-0.71928 -0.11988,-1.67832 1.79819,-0.35964 0.95904,-0.35964 -0.83916,-0.83916 1.91808,-0.47952 2.03796,-1.55844 3.71627,0 2.27772,1.31868 0.71928,0.11988 2.03796,2.87712 0.11988,1.1988 0.95903,0.11988 0.35964,2.51747 1.1988,0.95904 0,1.7982 0.71928,0.83916 0.83916,0.47952 0.47952,3.83615 0,0.35964 q 0,0.5994 0.71928,1.67832 0.71928,0.95904 0.71928,1.67832 0,0.71928 -0.35964,1.43855 l 1.43856,0.5994 q -0.23976,1.67832 -0.83916,2.63736 l 0.35964,2.63736 q 0.47952,1.19879 0.47952,1.79819 0,0.35964 -0.23976,1.31868 l -0.11988,5.15483 0.47952,1.07892 -0.47952,1.91808 0.5994,2.15784 z m -8.03195,-8.99099 -0.23976,-2.15784 0,-2.03795 -0.83916,-5.51448 -1.07892,-3.95603 -1.55844,-3.47652 -2.63735,-4.19579 -0.5994,0.23976 -0.47952,0.5994 -0.5994,0 q -0.47952,2.15784 -2.63736,2.27772 -0.95904,1.31867 -2.51748,3.59639 l -1.43855,1.31868 -0.47952,1.7982 -1.1988,1.43855 -1.1988,2.997 q 0,2.03796 -1.55844,4.43555 l -0.71928,1.07892 0.11988,1.91808 -1.91807,2.63736 -0.95904,4.19579 -0.83916,0.47952 q 0,0.11988 0.11988,0.47952 0,0.35964 0,0.5994 0,2.15784 -1.07892,4.31567 l 0.71928,2.15784 -1.43856,0.5994 -0.23976,0.47952 -0.95904,0.95904 2.63736,0.5994 1.55844,0.83915 2.39759,-0.35963 2.15784,0.95903 0,1.67832 0.47952,0.47952 2.87712,0 1.91807,-0.35964 q 0.71928,-1.07892 2.15784,-1.07892 l 0.35964,0 0.95904,-0.35964 -0.47952,-1.43855 3.35663,0 q 1.07892,-3.11688 3.95604,-5.51448 l 0,-1.1988 1.43856,-2.63735 0,-2.75724 0.35964,-3.11687 -0.23976,-1.91808 0.35964,-1.07892 z" />
        <path
           inkscape:connector-curvature="0"
           id="path4195"
           style="font-style:normal;font-variant:normal;font-weight:bold;font-stretch:normal;font-size:medium;line-height:125%;font-family:'Bradley Hand ITC TT';-inkscape-font-specification:'Bradley Hand ITC TT, Bold';text-align:start;letter-spacing:20px;word-spacing:0px;writing-mode:lr-tb;text-anchor:start;fill:#ffffff;fill-opacity:1;stroke:none;stroke-width:1px;stroke-linecap:butt;stroke-linejoin:miter;stroke-opacity:1"
           d="m 222.44789,313.01617 -1.07892,1.07892 0.35964,2.87711 -2.75724,3.35664 0,1.43856 -0.95904,0.95903 0.71928,1.07892 -2.3976,2.27772 -1.55843,2.63736 -2.51748,1.43855 q -1.43856,1.43856 -3.11688,1.55844 l -0.95903,2.15784 -1.1988,-1.07892 -1.1988,1.55844 q 0,-0.5994 -0.95904,-1.55844 l -0.83916,-0.47952 -0.95904,1.07892 -0.35964,0 -0.95904,1.1988 -1.55843,-0.95904 -2.51748,1.07892 -1.55844,-1.43856 q -0.35964,0.11988 -1.07892,0.11988 -1.91807,0 -4.79519,-1.07892 l -1.67832,-0.83916 -0.5994,-0.5994 -1.91807,-0.71928 -0.83916,-2.51747 q -2.03796,-0.11988 -4.1958,-0.95904 l -2.51747,-5.39459 0.35964,-0.83916 -0.5994,-0.95904 0,-2.15784 -0.71928,-1.1988 0.47952,-1.43855 q -0.35964,-1.31868 -0.35964,-2.27772 0,-0.23976 0.11988,-0.47952 0,-0.35964 0,-0.47952 l 0,-3.71627 0.47952,-1.1988 0.11988,-7.07291 0.35964,-1.67832 -0.5994,-0.71928 1.07892,-3.35664 -0.35964,-1.07891 0,-2.63736 0.59939,-0.71928 -0.11988,-1.67832 -0.47951,-1.1988 1.07891,-3.83615 -0.83915,-4.79519 0.35963,-0.35964 0,-1.55844 q 0.11988,-0.5994 0.11988,-1.91808 0,-1.67832 -0.23976,-2.63736 l 0.23976,-0.83915 -0.95903,-3.47652 q 0.23976,-0.83916 0.83915,-1.1988 -0.23975,-0.35964 -0.59939,-0.83916 0.35964,-0.71928 0.35964,-1.43855 0,-0.95904 -0.83916,-2.15784 0,-1.07892 0.35964,-1.91808 l -0.47952,-1.1988 0.5994,-1.31868 -1.91808,-4.07591 1.91808,-0.35964 0,-0.23976 4.19579,-2.15784 2.15784,2.51748 0.23976,1.1988 1.79819,1.31868 -0.11988,1.79819 q 0,0.95904 -0.23976,2.63736 0.83916,0.83916 0.83916,1.55844 0,0.35964 -0.23976,0.83916 l 0.47952,0.47952 -0.47952,1.91807 0.83916,2.15784 -0.11988,0.83916 1.55844,0.71928 -0.83916,1.55844 -0.71928,3.11687 q -0.11988,0.71928 -0.47952,2.15784 0.35964,0.71928 0.35964,3.23676 l -0.23976,0.95903 0.35964,0.95904 -0.5994,1.91808 q 0,1.07892 -0.35964,2.15784 l -0.11988,0.35964 q 0.5994,0.5994 1.31868,1.55843 l -1.31868,2.51748 0.35964,1.43856 -0.23976,0.71928 q 0,0.95904 -0.35964,2.27772 l 0.11988,0.47951 -0.11988,1.31868 -0.11988,1.7982 -0.35963,3.83616 1.55843,0.35963 0.23976,-3.71627 0.83916,-2.51748 0.47952,0.23976 0.71928,-1.79819 q 0.47952,-2.15784 1.91808,-4.07592 0.23976,-0.47952 0.71928,-0.95904 l 0.35964,-0.35964 0,0.23976 0.47952,-1.43856 1.43855,-1.55843 0.83916,-0.83916 0.11988,-0.47952 0.71928,-0.95904 q 0,-1.55844 1.07892,-2.27772 l 0.23976,-0.95904 1.55844,-0.47952 0.5994,-0.35963 0.23976,-0.71928 -0.11988,-1.67832 1.79819,-0.35964 0.95904,-0.35964 -0.83916,-0.83916 1.91808,-0.47952 2.03796,-1.55844 3.71627,0 2.27772,1.31868 0.71928,0.11988 2.03796,2.87712 0.11988,1.1988 0.95903,0.11988 0.35964,2.51747 1.1988,0.95904 0,1.7982 0.71928,0.83916 0.83916,0.47952 0.47952,3.83615 0,0.35964 q 0,0.5994 0.71928,1.67832 0.71928,0.95904 0.71928,1.67832 0,0.71928 -0.35964,1.43855 l 1.43856,0.5994 q -0.23976,1.67832 -0.83916,2.63736 l 0.35964,2.63736 q 0.47952,1.19879 0.47952,1.79819 0,0.35964 -0.23976,1.31868 l -0.11988,5.15483 0.47952,1.07892 -0.47952,1.91808 0.5994,2.15784 z m -8.03195,-8.99099 -0.23976,-2.15784 0,-2.03795 -0.83916,-5.51448 -1.07892,-3.95603 -1.55844,-3.47652 -2.63735,-4.19579 -0.5994,0.23976 -0.47952,0.5994 -0.5994,0 q -0.47952,2.15784 -2.63736,2.27772 -0.95904,1.31867 -2.51748,3.59639 l -1.43855,1.31868 -0.47952,1.7982 -1.1988,1.43855 -1.1988,2.997 q 0,2.03796 -1.55844,4.43555 l -0.71928,1.07892 0.11988,1.91808 -1.91807,2.63736 -0.95904,4.19579 -0.83916,0.47952 q 0,0.11988 0.11988,0.47952 0,0.35964 0,0.5994 0,2.15784 -1.07892,4.31567 l 0.71928,2.15784 -1.43856,0.5994 -0.23976,0.47952 -0.95904,0.95904 2.63736,0.5994 1.55844,0.83915 2.39759,-0.35963 2.15784,0.95903 0,1.67832 0.47952,0.47952 2.87712,0 1.91807,-0.35964 q 0.71928,-1.07892 2.15784,-1.07892 l 0.35964,0 0.95904,-0.35964 -0.47952,-1.43855 3.35663,0 q 1.07892,-3.11688 3.95604,-5.51448 l 0,-1.1988 1.43856,-2.63735 0,-2.75724 0.35964,-3.11687 -0.23976,-1.91808 0.35964,-1.07892 z" />
      </g>
      <g
         transform="translate(244,0)"
         id="g4280">
        <path
           inkscape:connector-curvature="0"
           id="path4226"
           style="font-style:normal;font-variant:normal;font-weight:bold;font-stretch:normal;font-size:medium;line-height:125%;font-family:'Bradley Hand ITC TT';-inkscape-font-specification:'Bradley Hand ITC TT, Bold';text-align:start;letter-spacing:20px;word-spacing:0px;writing-mode:lr-tb;text-anchor:start;fill:#280b0b;fill-opacity:0;stroke:#000000;stroke-width:5.33867931;stroke-linecap:round;stroke-linejoin:round;stroke-miterlimit:4;stroke-dasharray:none;stroke-opacity:1;filter:url(#filter4188)"
           d="m 82.954844,311.89824 -0.48,1.2 0.32,0.8 -0.16,0.24 -0.16,0.64 -0.32,0.56 -0.16,0.08 -0.08,0.76 -0.72,0.08 q -0.56,0.52 -1.16,0.84 l -0.24,-0.04 -0.6,0.2 -0.36,0.04 -0.76,0.28 -0.88,-0.4 -0.12,-0.08 -0.68,0.04 0.16,0.08 -1.12,-0.16 -1,0.24 -0.4,-0.36 -0.84,0.08 -0.32,-0.24 q -0.04,0 -0.32,0.04 l 0,0.24 q 0,0.36 -0.12,0.72 l 0.12,0.76 -0.32,0.4 q 0.08,0.88 0.08,1.32 l -0.12,1 0.16,1.52 -0.32,0.4 0.16,0.6 -0.12,0.4 0.24,0.12 0,0.6 q 0.08,0.24 0.08,0.36 0,0.36 -0.44,0.6 l 0.16,0.56 -0.2,0.32 -0.08,1.6 q -0.12,2.8 -1.24,2.8 -0.24,0 -1.4,-0.32 l 0.12,-1.2 -0.24,-1.76 0.4,-0.72 0.04,-0.88 -0.16,-1.2 0.32,-0.52 -0.36,-0.92 0.28,-0.48 -0.24,-0.8 0.32,-0.72 q -0.08,-0.24 -0.32,-0.44 -0.2,-0.2 -0.2,-0.28 0,-0.12 0.28,-0.24 -0.04,-0.12 -0.04,-0.4 0,-0.52 0.24,-1.36 l -0.24,-0.4 0.12,-0.52 -0.28,-0.36 0.36,-0.44 -0.16,-1.16 0.24,-1.64 -0.28,-0.52 0.44,-0.76 -0.48,-0.44 0.28,-0.76 -0.28,-0.2 0.04,-0.68 0.24,-0.84 0,-0.16 0.04,-0.16 0,-0.44 0.04,-0.16 -0.2,-0.64 0.2,-0.68 -0.2,-0.52 0.16,-0.6 -0.16,-0.16 0.12,-0.8 -0.12,-0.44 0.08,-0.4 -0.12,-0.28 -1.44,0.64 0,-0.24 -0.28,0.04 -0.44,0.4 -0.36,0 -0.48,0.64 -0.4,-0.16 -0.2,0.4 q -1.96,-1.16 -1.96,-1.84 0,-0.48 0.36,-0.8 l -0.04,-0.6 q 1.12,-0.64 2.12,-0.68 l 0.28,-0.28 1.28,-0.52 0.28,-0.28 1.12,0.08 0.2,-0.08 0.36,-1.4 0.96,0.2 0.64,1.04 0.36,-0.36 0.72,0.52 q 0.52,0 1,0.2 l 0.2,0.36 0.28,-0.12 0.32,0.24 q 0.28,0 0.44,0.04 l -0.04,0.24 0.88,-0.28 0.44,0.48 0.76,0.24 0.52,0.64 0.96,0.6 0.04,0.08 0.76,0.24 0,0.24 q 0.32,0.24 0.48,0.64 l 0.32,0.2 0.24,0.44 0.48,0 0,0.8 0.28,0.28 0.08,0.28 0.4,0.08 q 0.08,0.92 0.52,1.56 l 0,0.28 0.4,0.4 -0.08,0.64 0.32,0.72 0.12,0.84 0.28,0.08 z m -3,0.6 -0.04,-0.2 0.04,-0.16 -0.24,-0.72 0.16,-0.36 -0.16,-0.32 -0.04,-0.4 -0.32,-0.64 -0.16,-0.44 -0.6,-1.04 -0.48,-0.4 -0.28,-0.68 -0.36,-0.16 -0.64,-0.84 -0.64,0.08 -0.48,-0.64 -0.4,0.08 -0.28,-0.52 -0.16,-0.04 -0.56,0 -0.4,0.2 -0.32,-0.32 -0.4,0.08 -0.16,-0.28 -0.72,-0.12 0.04,0.48 -0.08,0.76 0.16,0.44 0.56,0.52 -0.44,0.96 0.04,0.6 -0.2,1.2 q 0.12,0.76 0.48,1.28 l -0.16,0.44 q 0.04,0.04 0.04,0.08 0,0.12 -0.32,0.36 l 0.28,0.36 -0.2,0.48 -0.08,0.52 0.12,0.56 -0.04,0.52 0.84,0 q 0.16,-0.08 0.44,-0.08 0.36,0 0.64,0.24 0.04,0 0.16,-0.04 0.08,0 0.12,0 0.12,0 0.44,0.08 0.24,-0.12 0.44,-0.12 0.32,0 0.6,0.16 l 0.36,0 0.32,0.08 0.8,-0.24 0.64,0.4 q 0.36,0.12 0.28,0.12 l 0.76,-0.76 0.08,-0.56 0.2,-0.08 -0.12,-0.32 0.28,-0.32 0.16,-0.28 z"
           transform="matrix(2.9969959,0,0,2.9969959,-139.22575,-620.78999)" />
        <path
           inkscape:connector-curvature="0"
           id="path4215"
           style="font-style:normal;font-variant:normal;font-weight:bold;font-stretch:normal;font-size:medium;line-height:125%;font-family:'Bradley Hand ITC TT';-inkscape-font-specification:'Bradley Hand ITC TT, Bold';text-align:start;letter-spacing:20px;word-spacing:0px;writing-mode:lr-tb;text-anchor:start;fill:#ffffff;fill-opacity:0;stroke:#ffffff;stroke-width:16;stroke-linecap:round;stroke-linejoin:round;stroke-miterlimit:4;stroke-dasharray:none;stroke-opacity:1"
           d="m 105.83479,313.97521 -1.43856,3.59639 0.95904,2.3976 -0.47952,0.71928 -0.47952,1.91807 -0.95904,1.67832 -0.47952,0.23976 -0.23976,2.27772 -2.15784,0.23976 q -1.678313,1.55844 -3.476511,2.51748 l -0.719279,-0.11988 -1.798197,0.59939 -1.078919,0.11988 -2.277717,0.83916 -2.637356,-1.1988 -0.35964,-0.23975 -2.037957,0.11988 0.47952,0.23975 -3.356636,-0.47951 -2.996996,0.71927 -1.198798,-1.07891 -2.517477,0.23976 -0.959038,-0.71928 q -0.11988,0 -0.959039,0.11988 l 0,0.71928 q 0,1.07891 -0.35964,2.15783 l 0.35964,2.27772 -0.959039,1.1988 q 0.23976,2.63735 0.23976,3.95603 l -0.35964,2.997 0.47952,4.55543 -0.959039,1.1988 0.479519,1.7982 -0.359639,1.1988 0.719279,0.35964 0,1.79819 q 0.23976,0.71928 0.23976,1.07892 0,1.07892 -1.318679,1.7982 l 0.47952,1.67832 -0.599399,0.95904 -0.23976,4.79519 q -0.35964,8.39159 -3.716275,8.39159 -0.719279,0 -4.195794,-0.95904 l 0.359639,-3.5964 -0.719279,-5.27471 1.198799,-2.15784 0.119879,-2.63735 -0.479519,-3.5964 0.959039,-1.55844 -1.078919,-2.75723 0.839159,-1.43856 -0.719279,-2.3976 0.959039,-2.15783 q -0.23976,-0.71928 -0.959039,-1.31868 -0.599399,-0.5994 -0.599399,-0.83916 0,-0.35964 0.839159,-0.71928 -0.11988,-0.35964 -0.11988,-1.1988 0,-1.55844 0.719279,-4.07591 l -0.719279,-1.1988 0.359639,-1.55844 -0.839158,-1.07892 1.078918,-1.31868 -0.479519,-3.47651 0.719279,-4.91507 -0.839159,-1.55844 1.318678,-2.27772 -1.438558,-1.31868 0.839159,-2.27771 -0.839159,-0.5994 0.11988,-2.03796 0.719279,-2.51748 0,-0.47952 0.11988,-0.47952 0,-1.31867 0.11988,-0.47952 -0.5994,-1.91808 0.5994,-2.03796 -0.5994,-1.55844 0.47952,-1.79819 -0.47952,-0.47952 0.35964,-2.3976 -0.35964,-1.31868 0.23976,-1.1988 -0.359639,-0.83915 -4.315674,1.91807 0,-0.71928 -0.839159,0.11988 -1.318679,1.1988 -1.078918,0 -1.438558,1.91808 -1.198798,-0.47952 -0.5994,1.1988 q -5.874112,-3.47652 -5.874112,-5.51447 0,-1.43856 1.078919,-2.3976 l -0.11988,-1.7982 q 3.356636,-1.91808 6.353631,-2.03796 l 0.839159,-0.83915 3.836155,-1.55844 0.839159,-0.83916 3.356635,0.23976 0.599399,-0.23976 1.078919,-4.19579 2.877116,0.59939 1.918077,3.11688 1.078919,-1.07892 2.157837,1.55844 q 1.558438,0 2.996996,0.5994 l 0.599399,1.07892 0.839159,-0.35964 0.959039,0.71928 q 0.839158,0 1.318678,0.11988 l -0.11988,0.71928 2.637356,-0.83916 1.318679,1.43855 2.277716,0.71928 1.558438,1.91808 2.877116,1.7982 0.11988,0.23976 2.277717,0.71928 0,0.71928 q 0.959039,0.71928 1.438558,1.91807 l 0.959039,0.5994 0.719279,1.31868 1.438558,0 0,2.3976 0.839159,0.83916 0.239759,0.83916 1.198795,0.23976 q 0.23976,2.75723 1.55844,4.67531 l 0,0.83916 1.1988,1.1988 -0.23976,1.91807 0.95904,2.15784 0.35964,2.51748 0.83916,0.23976 z m -8.99099,1.79819 -0.11988,-0.5994 0.11988,-0.47951 -0.719279,-2.15784 0.479519,-1.07892 -0.479519,-0.95904 -0.11988,-1.1988 -0.959039,-1.91807 -0.479519,-1.31868 -1.798198,-3.11688 -1.438558,-1.1988 -0.839159,-2.03795 -1.078918,-0.47952 -1.918078,-2.51748 -1.918077,0.23976 -1.438558,-1.91808 -1.198798,0.23976 -0.839159,-1.55844 -0.47952,-0.11988 -1.678317,0 -1.198799,0.5994 -0.959038,-0.95904 -1.198799,0.23976 -0.479519,-0.83915 -2.157837,-0.35964 0.11988,1.43855 -0.23976,2.27772 0.479519,1.31868 1.678318,1.55844 -1.318678,2.87711 0.11988,1.7982 -0.599399,3.5964 q 0.359639,2.27771 1.438558,3.83615 l -0.47952,1.31868 q 0.11988,0.11988 0.11988,0.23976 0,0.35964 -0.959039,1.07892 l 0.839159,1.07892 -0.599399,1.43855 -0.23976,1.55844 0.35964,1.67832 -0.11988,1.55844 2.517477,0 q 0.479519,-0.23976 1.318678,-0.23976 1.078918,0 1.918077,0.71928 0.11988,0 0.47952,-0.11988 0.239759,0 0.359639,0 0.35964,0 1.318678,0.23976 0.719279,-0.35964 1.318679,-0.35964 0.959038,0 1.798197,0.47952 l 1.078919,0 0.959038,0.23976 2.397597,-0.71928 1.918077,1.1988 q 1.078919,0.35963 0.839159,0.35963 l 2.277717,-2.27771 0.23976,-1.67832 0.599399,-0.23976 -0.35964,-0.95904 0.839159,-0.95904 0.47952,-0.83916 z" />
        <path
           inkscape:connector-curvature="0"
           id="path4204"
           style="font-style:normal;font-variant:normal;font-weight:bold;font-stretch:normal;font-size:medium;line-height:125%;font-family:'Bradley Hand ITC TT';-inkscape-font-specification:'Bradley Hand ITC TT, Bold';text-align:start;letter-spacing:20px;word-spacing:0px;writing-mode:lr-tb;text-anchor:start;fill:#000000;fill-opacity:0;stroke:#000080;stroke-width:8;stroke-linecap:round;stroke-linejoin:round;stroke-miterlimit:4;stroke-dasharray:none;stroke-opacity:1"
           d="m 105.83479,313.97521 -1.43856,3.59639 0.95904,2.3976 -0.47952,0.71928 -0.47952,1.91807 -0.95904,1.67832 -0.47952,0.23976 -0.23976,2.27772 -2.15784,0.23976 q -1.678313,1.55844 -3.476511,2.51748 l -0.719279,-0.11988 -1.798197,0.59939 -1.078919,0.11988 -2.277717,0.83916 -2.637356,-1.1988 -0.35964,-0.23975 -2.037957,0.11988 0.47952,0.23975 -3.356636,-0.47951 -2.996996,0.71927 -1.198798,-1.07891 -2.517477,0.23976 -0.959038,-0.71928 q -0.11988,0 -0.959039,0.11988 l 0,0.71928 q 0,1.07891 -0.35964,2.15783 l 0.35964,2.27772 -0.959039,1.1988 q 0.23976,2.63735 0.23976,3.95603 l -0.35964,2.997 0.47952,4.55543 -0.959039,1.1988 0.479519,1.7982 -0.359639,1.1988 0.719279,0.35964 0,1.79819 q 0.23976,0.71928 0.23976,1.07892 0,1.07892 -1.318679,1.7982 l 0.47952,1.67832 -0.599399,0.95904 -0.23976,4.79519 q -0.35964,8.39159 -3.716275,8.39159 -0.719279,0 -4.195794,-0.95904 l 0.359639,-3.5964 -0.719279,-5.27471 1.198799,-2.15784 0.119879,-2.63735 -0.479519,-3.5964 0.959039,-1.55844 -1.078919,-2.75723 0.839159,-1.43856 -0.719279,-2.3976 0.959039,-2.15783 q -0.23976,-0.71928 -0.959039,-1.31868 -0.599399,-0.5994 -0.599399,-0.83916 0,-0.35964 0.839159,-0.71928 -0.11988,-0.35964 -0.11988,-1.1988 0,-1.55844 0.719279,-4.07591 l -0.719279,-1.1988 0.359639,-1.55844 -0.839158,-1.07892 1.078918,-1.31868 -0.479519,-3.47651 0.719279,-4.91507 -0.839159,-1.55844 1.318678,-2.27772 -1.438558,-1.31868 0.839159,-2.27771 -0.839159,-0.5994 0.11988,-2.03796 0.719279,-2.51748 0,-0.47952 0.11988,-0.47952 0,-1.31867 0.11988,-0.47952 -0.5994,-1.91808 0.5994,-2.03796 -0.5994,-1.55844 0.47952,-1.79819 -0.47952,-0.47952 0.35964,-2.3976 -0.35964,-1.31868 0.23976,-1.1988 -0.359639,-0.83915 -4.315674,1.91807 0,-0.71928 -0.839159,0.11988 -1.318679,1.1988 -1.078918,0 -1.438558,1.91808 -1.198798,-0.47952 -0.5994,1.1988 q -5.874112,-3.47652 -5.874112,-5.51447 0,-1.43856 1.078919,-2.3976 l -0.11988,-1.7982 q 3.356636,-1.91808 6.353631,-2.03796 l 0.839159,-0.83915 3.836155,-1.55844 0.839159,-0.83916 3.356635,0.23976 0.599399,-0.23976 1.078919,-4.19579 2.877116,0.59939 1.918077,3.11688 1.078919,-1.07892 2.157837,1.55844 q 1.558438,0 2.996996,0.5994 l 0.599399,1.07892 0.839159,-0.35964 0.959039,0.71928 q 0.839158,0 1.318678,0.11988 l -0.11988,0.71928 2.637356,-0.83916 1.318679,1.43855 2.277716,0.71928 1.558438,1.91808 2.877116,1.7982 0.11988,0.23976 2.277717,0.71928 0,0.71928 q 0.959039,0.71928 1.438558,1.91807 l 0.959039,0.5994 0.719279,1.31868 1.438558,0 0,2.3976 0.839159,0.83916 0.239759,0.83916 1.198795,0.23976 q 0.23976,2.75723 1.55844,4.67531 l 0,0.83916 1.1988,1.1988 -0.23976,1.91807 0.95904,2.15784 0.35964,2.51748 0.83916,0.23976 z m -8.99099,1.79819 -0.11988,-0.5994 0.11988,-0.47951 -0.719279,-2.15784 0.479519,-1.07892 -0.479519,-0.95904 -0.11988,-1.1988 -0.959039,-1.91807 -0.479519,-1.31868 -1.798198,-3.11688 -1.438558,-1.1988 -0.839159,-2.03795 -1.078918,-0.47952 -1.918078,-2.51748 -1.918077,0.23976 -1.438558,-1.91808 -1.198798,0.23976 -0.839159,-1.55844 -0.47952,-0.11988 -1.678317,0 -1.198799,0.5994 -0.959038,-0.95904 -1.198799,0.23976 -0.479519,-0.83915 -2.157837,-0.35964 0.11988,1.43855 -0.23976,2.27772 0.479519,1.31868 1.678318,1.55844 -1.318678,2.87711 0.11988,1.7982 -0.599399,3.5964 q 0.359639,2.27771 1.438558,3.83615 l -0.47952,1.31868 q 0.11988,0.11988 0.11988,0.23976 0,0.35964 -0.959039,1.07892 l 0.839159,1.07892 -0.599399,1.43855 -0.23976,1.55844 0.35964,1.67832 -0.11988,1.55844 2.517477,0 q 0.479519,-0.23976 1.318678,-0.23976 1.078918,0 1.918077,0.71928 0.11988,0 0.47952,-0.11988 0.239759,0 0.359639,0 0.35964,0 1.318678,0.23976 0.719279,-0.35964 1.318679,-0.35964 0.959038,0 1.798197,0.47952 l 1.078919,0 0.959038,0.23976 2.397597,-0.71928 1.918077,1.1988 q 1.078919,0.35963 0.839159,0.35963 l 2.277717,-2.27771 0.23976,-1.67832 0.599399,-0.23976 -0.35964,-0.95904 0.839159,-0.95904 0.47952,-0.83916 z" />
        <path
           inkscape:connector-curvature="0"
           id="path4193"
           style="font-style:normal;font-variant:normal;font-weight:bold;font-stretch:normal;font-size:medium;line-height:125%;font-family:'Bradley Hand ITC TT';-inkscape-font-specification:'Bradley Hand ITC TT, Bold';text-align:start;letter-spacing:20px;word-spacing:0px;writing-mode:lr-tb;text-anchor:start;fill:#ffffff;fill-opacity:1;stroke:none;stroke-width:1px;stroke-linecap:butt;stroke-linejoin:miter;stroke-opacity:1"
           d="m 105.83479,313.97521 -1.43856,3.59639 0.95904,2.3976 -0.47952,0.71928 -0.47952,1.91807 -0.95904,1.67832 -0.47952,0.23976 -0.23976,2.27772 -2.15784,0.23976 q -1.678313,1.55844 -3.476511,2.51748 l -0.719279,-0.11988 -1.798197,0.59939 -1.078919,0.11988 -2.277717,0.83916 -2.637356,-1.1988 -0.35964,-0.23975 -2.037957,0.11988 0.47952,0.23975 -3.356636,-0.47951 -2.996996,0.71927 -1.198798,-1.07891 -2.517477,0.23976 -0.959038,-0.71928 q -0.11988,0 -0.959039,0.11988 l 0,0.71928 q 0,1.07891 -0.35964,2.15783 l 0.35964,2.27772 -0.959039,1.1988 q 0.23976,2.63735 0.23976,3.95603 l -0.35964,2.997 0.47952,4.55543 -0.959039,1.1988 0.479519,1.7982 -0.359639,1.1988 0.719279,0.35964 0,1.79819 q 0.23976,0.71928 0.23976,1.07892 0,1.07892 -1.318679,1.7982 l 0.47952,1.67832 -0.599399,0.95904 -0.23976,4.79519 q -0.35964,8.39159 -3.716275,8.39159 -0.719279,0 -4.195794,-0.95904 l 0.359639,-3.5964 -0.719279,-5.27471 1.198799,-2.15784 0.119879,-2.63735 -0.479519,-3.5964 0.959039,-1.55844 -1.078919,-2.75723 0.839159,-1.43856 -0.719279,-2.3976 0.959039,-2.15783 q -0.23976,-0.71928 -0.959039,-1.31868 -0.599399,-0.5994 -0.599399,-0.83916 0,-0.35964 0.839159,-0.71928 -0.11988,-0.35964 -0.11988,-1.1988 0,-1.55844 0.719279,-4.07591 l -0.719279,-1.1988 0.359639,-1.55844 -0.839158,-1.07892 1.078918,-1.31868 -0.479519,-3.47651 0.719279,-4.91507 -0.839159,-1.55844 1.318678,-2.27772 -1.438558,-1.31868 0.839159,-2.27771 -0.839159,-0.5994 0.11988,-2.03796 0.719279,-2.51748 0,-0.47952 0.11988,-0.47952 0,-1.31867 0.11988,-0.47952 -0.5994,-1.91808 0.5994,-2.03796 -0.5994,-1.55844 0.47952,-1.79819 -0.47952,-0.47952 0.35964,-2.3976 -0.35964,-1.31868 0.23976,-1.1988 -0.359639,-0.83915 -4.315674,1.91807 0,-0.71928 -0.839159,0.11988 -1.318679,1.1988 -1.078918,0 -1.438558,1.91808 -1.198798,-0.47952 -0.5994,1.1988 q -5.874112,-3.47652 -5.874112,-5.51447 0,-1.43856 1.078919,-2.3976 l -0.11988,-1.7982 q 3.356636,-1.91808 6.353631,-2.03796 l 0.839159,-0.83915 3.836155,-1.55844 0.839159,-0.83916 3.356635,0.23976 0.599399,-0.23976 1.078919,-4.19579 2.877116,0.59939 1.918077,3.11688 1.078919,-1.07892 2.157837,1.55844 q 1.558438,0 2.996996,0.5994 l 0.599399,1.07892 0.839159,-0.35964 0.959039,0.71928 q 0.839158,0 1.318678,0.11988 l -0.11988,0.71928 2.637356,-0.83916 1.318679,1.43855 2.277716,0.71928 1.558438,1.91808 2.877116,1.7982 0.11988,0.23976 2.277717,0.71928 0,0.71928 q 0.959039,0.71928 1.438558,1.91807 l 0.959039,0.5994 0.719279,1.31868 1.438558,0 0,2.3976 0.839159,0.83916 0.239759,0.83916 1.198795,0.23976 q 0.23976,2.75723 1.55844,4.67531 l 0,0.83916 1.1988,1.1988 -0.23976,1.91807 0.95904,2.15784 0.35964,2.51748 0.83916,0.23976 z m -8.99099,1.79819 -0.11988,-0.5994 0.11988,-0.47951 -0.719279,-2.15784 0.479519,-1.07892 -0.479519,-0.95904 -0.11988,-1.1988 -0.959039,-1.91807 -0.479519,-1.31868 -1.798198,-3.11688 -1.438558,-1.1988 -0.839159,-2.03795 -1.078918,-0.47952 -1.918078,-2.51748 -1.918077,0.23976 -1.438558,-1.91808 -1.198798,0.23976 -0.839159,-1.55844 -0.47952,-0.11988 -1.678317,0 -1.198799,0.5994 -0.959038,-0.95904 -1.198799,0.23976 -0.479519,-0.83915 -2.157837,-0.35964 0.11988,1.43855 -0.23976,2.27772 0.479519,1.31868 1.678318,1.55844 -1.318678,2.87711 0.11988,1.7982 -0.599399,3.5964 q 0.359639,2.27771 1.438558,3.83615 l -0.47952,1.31868 q 0.11988,0.11988 0.11988,0.23976 0,0.35964 -0.959039,1.07892 l 0.839159,1.07892 -0.599399,1.43855 -0.23976,1.55844 0.35964,1.67832 -0.11988,1.55844 2.517477,0 q 0.479519,-0.23976 1.318678,-0.23976 1.078918,0 1.918077,0.71928 0.11988,0 0.47952,-0.11988 0.239759,0 0.359639,0 0.35964,0 1.318678,0.23976 0.719279,-0.35964 1.318679,-0.35964 0.959038,0 1.798197,0.47952 l 1.078919,0 0.959038,0.23976 2.397597,-0.71928 1.918077,1.1988 q 1.078919,0.35963 0.839159,0.35963 l 2.277717,-2.27771 0.23976,-1.67832 0.599399,-0.23976 -0.35964,-0.95904 0.839159,-0.95904 0.47952,-0.83916 z" />
      </g>
    </g>
  </g>
</svg>
